<?xml version="1.0" encoding="utf-8"?>
<!-- Generator: Adobe Illustrator 22.1.0, SVG Export Plug-In . SVG Version: 6.00 Build 0)  -->
<svg version="1.1" xmlns="http://www.w3.org/2000/svg" xmlns:xlink="http://www.w3.org/1999/xlink" x="0px" y="0px"
	 viewBox="0 0 800 800" style="enable-background:new 0 0 800 800;" xml:space="preserve">
<style type="text/css">
	.st0{opacity:0.1;fill:#808080;}
	.st1{fill-rule:evenodd;clip-rule:evenodd;fill:#ED8E4F;}
	.st2{fill:#12A697;}
	.st3{fill:#FFFFFF;}
	.st4{fill:#E97223;}
	.st5{fill:#346C7B;}
	.st6{fill:#F4B891;}
	.st7{fill:#5F403B;}
	.st8{fill:#41B8AC;}
	.st9{fill:#A6BFC5;}
	.st10{fill:#9B8784;}
	.st11{fill-rule:evenodd;clip-rule:evenodd;fill:#01475A;}
	.st12{opacity:0.5;fill:#12A697;}
	.st13{fill-rule:evenodd;clip-rule:evenodd;fill:#F4CA71;}
	.st14{fill:#F4CA71;}
	.st15{fill-rule:evenodd;clip-rule:evenodd;fill:#12A697;}
	.st16{fill-rule:evenodd;clip-rule:evenodd;fill:#E97223;}
	.st17{fill:none;stroke:#12A697;stroke-width:1.0747;stroke-miterlimit:10;}
	.st18{fill:#C4E9E5;}
	.st19{fill:#50BDB2;}
	.st20{fill-rule:evenodd;clip-rule:evenodd;fill:#FFFFFF;}
	.st21{fill-rule:evenodd;clip-rule:evenodd;}
	.st22{fill-rule:evenodd;clip-rule:evenodd;fill:#41B8AC;}
	.st23{fill:#67919C;}
	.st24{fill:#F2AA7B;}
	.st25{fill:#F9DCC8;}
	.st26{fill:#01475A;}
	.st27{fill:#ED8E4F;}
	.st28{fill-rule:evenodd;clip-rule:evenodd;fill:#F9DCC8;}
	.st29{fill-rule:evenodd;clip-rule:evenodd;fill:#37100A;}
	.st30{fill-rule:evenodd;clip-rule:evenodd;fill:#80A3AC;}
	.st31{fill-rule:evenodd;clip-rule:evenodd;fill:#F4B891;}
	.st32{fill-rule:evenodd;clip-rule:evenodd;fill:#9B8784;}
	.st33{fill:#F2CFB3;}
	.st34{fill:#E0BFA6;}
	.st35{opacity:0.5;}
	.st36{fill:#D9D9D9;}
	.st37{fill:#F2F2F1;}
	.st38{fill:#999999;}
	.st39{fill:#333333;}
	.st40{fill:#595959;}
	.st41{fill:none;stroke:#FFFFFF;stroke-width:0.3708;stroke-miterlimit:10;}
	.st42{fill:#808080;}
	.st43{fill:none;stroke:#000000;stroke-width:2;stroke-miterlimit:10;}
	.st44{fill:none;stroke:#000000;stroke-width:1.5;stroke-linecap:round;stroke-miterlimit:10;}
	.st45{fill:none;}
	.st46{opacity:0.5;fill:#333333;}
	.st47{fill:#BFBFBF;}
	.st48{opacity:0.25;}
</style>
<g id="BACKGROUND">
	<path class="st0" d="M674.2,591.7c-1-5-1.6-10.6-4-16.2c-10.6-24.7-121.1-244.8-121.1-244.8c-0.2,0-0.5,1.4-0.9,3.9l0.5-3.9h-99.4
		v-24.4v-28.9c8.5-10.8,20.9-26.9,21.5-31c1.2-7.2,4-22.9,5.1-31.7c2.1,5.4,6.6,7,15.5-0.8c9.3-8.1,13.7-34.7,3.5-42.7
		c-5.2-1.6-10.6,1.1-14.6,4.2c0.1-0.8,0.1-1.5,0.2-2.2c8.5-9,7.2-23.3,6.6-37.2c-0.9-20.5,2.4-41.1-8.4-59.6
		c-7.7-13.3-16.1-22.1-29.5-28.7c-9.5-4.7-18.4-4.9-29.8-4.9c-26,0-58.4-1.2-77.5,19c-15.5,16.4-14.6,44.1-14.6,66
		c0,3.9,0.1,9.6,0.5,15.8c0,0.5,0,0.9,0.1,1.4c0.4,8.5,1.2,17.4,2.2,26.4c-2.6-0.7-5.9-0.8-10.4-0.1c-10.3,8-5.8,34.6,3.5,42.7
		c6.8,5.9,11.1,6.4,13.6,3.9c0.2,1.3,0.4,2.6,0.6,3.9c1.6,9.8,1.3,18.1,4.4,27.5c2,5.9,13.7,20.9,23.3,31.9v22.5v27.1H261.7
		c0,0-110.4,220.1-121.1,244.8c-2.4,5.6-3,11.2-4,16.2c-5.5,27.5,15.6,53.2,43.7,53.2l74.1,5.2c0,0,6.7,0.5,13.8-3.2
		c1.4,1.1,2.7,1.8,3.8,1.5c4.5-1,5.3-4.1,4.1-8.1c1.2-1.4,2.3-3.1,3.3-5c2.3,3.1,4.4,6,6.6,8l1.2,25.8h235.8l1.4-25.5
		c2.2-2,4.4-5,6.9-8.3c1,1.9,2.1,3.5,3.3,5c-1.2,4-0.4,7.1,4.1,8.1c1.1,0.2,2.4-0.4,3.8-1.5c7.1,3.8,13.8,3.2,13.8,3.2l74.1-5.2
		C658.6,644.9,679.7,619.2,674.2,591.7z M284.3,617.8c0-0.4,0.1-0.9,0.1-1.3c0.1,0.1,0.3,0.3,0.4,0.4l0.1,1.7
		C284.7,618.3,284.5,618,284.3,617.8z M525.8,618.7l0.1-1.8c0.2-0.2,0.4-0.4,0.6-0.5c0,0.4,0.1,0.9,0.1,1.3
		C526.3,618.1,526.1,618.4,525.8,618.7z"/>
</g>
<g id="OBJECTS">
	<g>
		<g>
			<g>
				<path class="st1" d="M531.5,342l-2.1,2.1c-0.4,0.4-1,0.4-1.4,0l-8.6-8.6c-1.6,0.9-3.4,1.4-5.3,1.4c-5.9,0-10.7-4.8-10.7-10.7
					c0-5.9,4.8-10.7,10.7-10.7c5.9,0,10.7,4.8,10.7,10.7c0,2.1-0.6,4.1-1.7,5.8l8.5,8.5C531.9,340.9,531.9,341.6,531.5,342z
					 M514.1,318.8c-4.1,0-7.5,3.3-7.5,7.5c0,4.1,3.3,7.5,7.5,7.5c4.1,0,7.5-3.3,7.5-7.5C521.6,322.2,518.2,318.8,514.1,318.8z"/>
				<path class="st1" d="M562,343.8c-6.9,0-12.5-5.6-12.5-12.5c0-5.4,3.4-10,8.2-11.7v3.5c-3,1.5-5,4.7-5,8.2c0,5.1,4.2,9.3,9.3,9.3
					c5.1,0,9.3-4.2,9.3-9.3c0-3.4-1.8-6.4-4.6-8v-3.6c4.6,1.9,7.8,6.3,7.8,11.6C574.5,338.2,568.9,343.8,562,343.8z M562.3,330.1
					c-1.1,0-2-0.9-2-2v-10c0-1.1,0.9-2,2-2c1.1,0,2,0.9,2,2v10C564.3,329.3,563.4,330.1,562.3,330.1z"/>
				<path class="st1" d="M618.9,321.9h-2.3c0.2,0.3,0.3,0.6,0.3,1l-3,12c0,1.1-0.9,2-2,2h-14c-1.1,0-2-0.9-2-2l-4-12
					c0-1.1,0.9-2,2-2h19.3c-0.2-0.3-0.3-0.6-0.3-1c0-1.1,0.9-2,2-2h4c1.1,0,2,0.9,2,2C620.9,321,620,321.9,618.9,321.9z
					 M598.9,325.3c0-0.6-0.4-1-1-1h-1c-0.6,0-1,0.4-1,1v2c0,0.6,0.4,1,1,1h1c0.6,0,1-0.4,1-1V325.3z M599.4,330.3c-0.6,0-1,0.4-1,1
					v2c0,0.6,0.4,1,1,1h1c0.6,0,1-0.4,1-1v-2c0-0.6-0.4-1-1-1H599.4z M603.9,325.3c0-0.6-0.4-1-1-1h-1c-0.6,0-1,0.4-1,1v2
					c0,0.6,0.4,1,1,1h1c0.6,0,1-0.4,1-1V325.3z M604.4,330.3c-0.6,0-1,0.4-1,1v2c0,0.6,0.4,1,1,1h1c0.6,0,1-0.4,1-1v-2
					c0-0.6-0.4-1-1-1H604.4z M608.9,325.3c0-0.6-0.4-1-1-1h-1c-0.6,0-1,0.4-1,1v2c0,0.6,0.4,1,1,1h1c0.6,0,1-0.4,1-1V325.3z
					 M609.4,330.3c-0.6,0-1,0.4-1,1v2c0,0.6,0.4,1,1,1h1c0.6,0,1-0.4,1-1v-2c0-0.6-0.4-1-1-1H609.4z M613.9,325.3c0-0.6-0.4-1-1-1
					h-1c-0.6,0-1,0.4-1,1v2c0,0.6,0.4,1,1,1h1c0.6,0,1-0.4,1-1V325.3z M599.3,337.3c1.3,0,2.4,1.1,2.4,2.4c0,1.3-1.1,2.4-2.4,2.4
					c-1.3,0-2.4-1.1-2.4-2.4C596.9,338.4,597.9,337.3,599.3,337.3z M610.7,337.1c1.3,0,2.4,1.1,2.4,2.4c0,1.3-1.1,2.4-2.4,2.4
					c-1.3,0-2.4-1.1-2.4-2.4C608.3,338.2,609.4,337.1,610.7,337.1z"/>
				<path class="st1" d="M652.7,326.9v-2.5c2.9,0.3,4.8,2.8,4.8,5.8c0,3-1.8,5.5-4.8,5.8v-2.5c1.6-0.3,2.3-1.6,2.3-3.3
					C655,328.5,654.2,327.2,652.7,326.9z M652.7,342.1l-0.1-2.2c4.6-0.8,8.1-4.8,8.1-9.7c0-4.8-3.5-8.9-8.1-9.7l0.1-2.2
					c6,0.6,11,5.7,11,11.9C663.8,336.4,658.8,341.5,652.7,342.1z M637.7,335v-9.9l4.6,0l8.3-7.2l0,23.6l-8.5-6.6L637.7,335z"/>
				<path class="st1" d="M702.1,329l7.1-5.7v13.5L702.1,329z M700.6,327.3l-0.3,0.5l-4.8,3.7l-13.9-10c0.2-0.1,0.3-0.2,0.5-0.2h26
					c0.1,0,0.1,0,0.1,0l-7.6,6L700.6,327.3z M681.1,336.7v-13.1l7.1,5.3L681.1,336.7z M695.6,334.3l5.2-4.2l7.7,8.4
					c-0.1,0-0.2,0.1-0.3,0.1h-26c-0.1,0-0.2,0-0.2,0l7.9-8.5L695.6,334.3z M708.9,338.1l0.2-0.5C709.1,337.8,709,338,708.9,338.1z"
					/>
				<path class="st1" d="M752,340.9h-25c-1.1,0-2-0.9-2-2v-17.8c0-1.1,0.9-2.1,2-2.1h25c1.1,0,2,1,2,2.1v17.8
					C754,340,753.1,340.9,752,340.9z M751,323.5c0-0.9-0.7-1.6-1.6-1.6h-19.9c-0.9,0-1.6,0.7-1.6,1.6v12.8c0,0.9,0.7,1.6,1.6,1.6
					h19.9c0.9,0,1.6-0.7,1.6-1.6V323.5z M746,324h3v12h-3V324z M742,327h3v9h-3V327z M738,331h3v5h-3V331z M734,328.1h3v7.9h-3
					V328.1z M730,324h3v12h-3V324z"/>
			</g>
			<g>
				<g>
					<rect x="606.7" y="62.9" class="st2" width="145.5" height="120.7"/>
					<rect x="610.4" y="67" class="st3" width="138.4" height="48.8"/>
					<rect x="610.4" y="67" class="st4" width="138.4" height="6.8"/>
					<g>
						<g>
							<rect x="610.6" y="118.7" class="st3" width="32.8" height="30"/>
							<rect x="611.1" y="119.3" class="st4" width="31.7" height="5.7"/>
						</g>
						<g>
							<rect x="645.8" y="118.7" class="st3" width="32.8" height="30"/>
							<rect x="646.3" y="119.3" class="st5" width="31.7" height="5.7"/>
						</g>
						<g>
							<rect x="681" y="118.7" class="st3" width="32.8" height="30"/>
							<rect x="681.5" y="119.3" class="st6" width="31.7" height="5.7"/>
						</g>
						<g>
							<rect x="716.2" y="118.7" class="st3" width="32.8" height="30"/>
							<rect x="716.7" y="119.3" class="st7" width="31.7" height="5.7"/>
						</g>
					</g>
					<g>
						<g>
							<rect x="610.6" y="151.2" class="st3" width="32.8" height="30"/>
							<rect x="611.1" y="151.9" class="st8" width="31.7" height="5.7"/>
						</g>
						<g>
							<rect x="645.8" y="151.2" class="st3" width="32.8" height="30"/>
							<rect x="646.3" y="151.9" class="st9" width="31.7" height="5.7"/>
						</g>
						<g>
							<rect x="681" y="151.2" class="st3" width="32.8" height="30"/>
							<rect x="681.5" y="151.9" class="st10" width="31.7" height="5.7"/>
						</g>
						<g>
							<rect x="716.2" y="151.2" class="st3" width="32.8" height="30"/>
							<rect x="716.7" y="151.9" class="st2" width="31.7" height="5.7"/>
						</g>
					</g>
				</g>
				<path class="st11" d="M748.9,68.5c-9,0-16.3-7.3-16.3-16.3c0-9,7.3-16.3,16.3-16.3c9,0,16.3,7.3,16.3,16.3
					C765.1,61.2,757.9,68.5,748.9,68.5z M758.8,45.3l-0.3-0.4c-0.3-0.3-0.8-0.3-1.2,0l-11.7,11.4l-4.2-6.6c-0.3-0.3-0.8-0.3-1.2,0
					l-1.5,1.6c-0.3,0.3-0.3,0.8,0,1.2l4.9,8.2c0.1,0.1,0.3,0.2,0.5,0.3l0.1,0.1c0.3,0.3,0.8,0.3,1.2,0l13.4-14.6
					C759.2,46.1,759.2,45.6,758.8,45.3z"/>
			</g>
			<g>
				<circle class="st12" cx="135.5" cy="262.7" r="49.8"/>
				<circle class="st12" cx="185.1" cy="262.3" r="49.8"/>
				<circle class="st12" cx="161.5" cy="304.8" r="49.8"/>
				<path class="st13" d="M177.5,346.4h-30.2v-0.8c-0.1-1.6-0.2-2.7-0.2-2.7c0-0.4-1-10,6.3-12.9c1.3-0.5,2.8-0.8,4.5-0.8h4.3h4.3
					c1.7,0,3.2,0.3,4.5,0.8c5.7,2.2,6.4,8.6,6.4,11.4c0,0.8-0.1,1.4-0.1,1.5l-0.1,1.3h0.3V346.4z M175.8,342.7c0,0,0-0.5,0-1.2
					c0-2.5-0.5-8.2-5.4-10.1c-1.1-0.4-2.4-0.7-3.9-0.7h-8.7c-1.5,0-2.8,0.2-3.9,0.7c-4.8,1.9-5.4,7.6-5.4,10.1c0,0.7,0,1.2,0,1.2
					c0,0,0,0.5,0.1,1.4h4.1v-4.2h1.6v4.2h5.8v-10.4h3.3h0.5v10.4h5.9v-4.2h1.6v4.2h4.1C175.7,343.2,175.8,342.7,175.8,342.7z
					 M162.2,327.1c-3.6,0-6.6-2.9-6.6-6.6c0-3.6,2.9-6.6,6.6-6.6c3.6,0,6.6,2.9,6.6,6.6C168.7,324.1,165.8,327.1,162.2,327.1z"/>
				<g>
					<path class="st14" d="M102.4,242.5h1.1v8.3c0,5.4,1.7,5.4,4.2,5.4c2.2,0,4.1-0.1,4.1-5.4v-8.3h1.1v8.3c0,6.5-2.8,6.5-5.2,6.5
						c-2.7,0-5.3,0.1-5.3-6.5V242.5z"/>
					<path class="st14" d="M116.5,242.5l3.8,6.4l3.9-6.4h1.3l-4.4,7.3l4.3,7.4h-1.3l-3.8-6.4l-3.7,6.4h-1.3l4.3-7.4l-4.3-7.3H116.5z
						"/>
				</g>
				<g>
					<path class="st14" d="M196.5,242.5h1.1v8.3c0,5.4,1.7,5.4,4.2,5.4c2.2,0,4.1-0.1,4.1-5.4v-8.3h1.1v8.3c0,6.5-2.8,6.5-5.2,6.5
						c-2.7,0-5.3,0.1-5.3-6.5V242.5z"/>
					<path class="st14" d="M210.1,242.5h1.1v14.7h-1.1V242.5z"/>
				</g>
				<path class="st13" d="M161.6,267.2c-6.8,0-12.3,5.5-12.3,12.3c0,6.8,5.5,12.3,12.3,12.3c6.8,0,12.3-5.5,12.3-12.3
					C174,272.7,168.5,267.2,161.6,267.2z M163.4,285.9h-2.9v-2.4h2.9V285.9z M163.4,281.7l-3.2-0.1l-0.9-9.2l4.7-0.1L163.4,281.7z"
					/>
			</g>
			<g>
				<rect x="64.5" y="40.6" class="st4" width="68" height="85"/>
				<rect x="137" y="98.4" class="st4" width="68" height="85"/>
				<rect x="137" y="40.6" class="st4" width="68" height="54.4"/>
				<rect x="64.5" y="129" class="st4" width="68" height="54.4"/>
				<g>
					<path class="st13" d="M198.1,140.7C198.1,140.7,198.1,140.8,198.1,140.7c0,1.7-4.8,3.1-10.8,3.1c-6,0-10.8-1.3-10.8-3
						c0,0,0-0.1,0-0.1h-0.2V136h0.2c0,0,0,0.1,0,0.1c0,1.7,4.9,3,10.8,3c6,0,10.8-1.3,10.8-3c0,0,0-0.1,0-0.1h0.2v4.8H198.1z
						 M198.1,134.5c0,1.7-4.9,3-10.8,3c-6,0-10.8-1.3-10.8-3c0,0,0-0.1,0-0.1h-0.2v-4.8h0.2c0,0,0,0.1,0,0.1c0,1.7,4.9,3,10.8,3
						c6,0,10.8-1.3,10.8-3c0,0,0-0.1,0-0.1h0.2v4.8L198.1,134.5C198.1,134.4,198.1,134.4,198.1,134.5z M198.1,127.8
						c0,1.7-4.9,3-10.8,3c-6,0-10.8-1.3-10.8-3c0,0,0-0.1,0-0.1h-0.2V123h0.2c0,0,0,0.1,0,0.1c0,1.7,4.9,3,10.8,3
						c6,0,10.8-1.3,10.8-3c0,0,0-0.1,0-0.1h0.2v4.8L198.1,127.8C198.1,127.7,198.1,127.8,198.1,127.8z M187.3,124.4
						c-6,0-10.8-1.3-10.8-3c0-1.7,4.9-3,10.8-3c6,0,10.8,1.3,10.8,3C198.1,123.1,193.2,124.4,187.3,124.4z"/>
					<g>
						<circle class="st13" cx="177.3" cy="156.8" r="2.1"/>
						<circle class="st13" cx="160.6" cy="152.1" r="3.3"/>
						<path class="st13" d="M175.6,144.3c-0.7-6.6-8.8-9.9-13.5-9.7c-5.3,0.2-13.2,3-13.2,10.1c0,0.1,0,0.1,0,0.1
							c-4.6,2.2-7.8,5.7-7.8,10.5c0,7.1,6.8,12.8,15.1,12.8c3.7,0,7.1-1.1,9.7-3c2.6,1.9,6,3,9.7,3c8.3,0,14.6-4.2,14.6-11.3
							C190.2,150.9,185,144.5,175.6,144.3z M166.9,160.4l-2-2c-0.8,0.6-1.8,1-2.8,1.2v2.8h-3v-2.9c-1-0.2-2-0.6-2.8-1.2l-2.1,2.1
							l-2.1-2.1l2.1-2.1c-0.5-0.8-0.9-1.7-1.1-2.7h-3v-3h3.1c0.2-1,0.6-1.8,1.1-2.6l-2.2-2.2l2.1-2.1l2.2,2.2
							c0.8-0.5,1.7-0.9,2.6-1.1v-3.2h3v3.1c1,0.2,1.9,0.5,2.6,1.1l2.2-2.2l2.1,2.1l-2.2,2.2c0.6,0.8,1,1.7,1.2,2.7h3v3h-2.9
							c-0.2,1-0.6,2-1.1,2.8l2,2L166.9,160.4z M184,157.7h-1.9c-0.1,0.7-0.4,1.3-0.7,1.8l1.3,1.3l-1.4,1.4l-1.3-1.3
							c-0.5,0.4-1.2,0.6-1.8,0.8v1.8h-1.9v-1.8c-0.7-0.1-1.3-0.4-1.8-0.8l-1.3,1.3l-1.4-1.4l1.4-1.4c-0.3-0.5-0.6-1.1-0.7-1.8h-2
							v-1.9h2c0.1-0.6,0.4-1.2,0.7-1.7l-1.4-1.4l1.4-1.4l1.4,1.4c0.5-0.3,1.1-0.6,1.7-0.7v-2h1.9v2c0.6,0.1,1.2,0.4,1.7,0.7l1.4-1.4
							l1.4,1.4l-1.4,1.4c0.4,0.5,0.6,1.1,0.8,1.7h1.9V157.7z"/>
					</g>
				</g>
				<path class="st13" d="M117.6,150.4c0.9,2.3,1.4,4.7,1.4,7.4c0,2.6-0.5,5.1-1.4,7.4v1.5h-0.7c-3.1,6.1-9.2,10.3-16.3,10.3
					c-7.1,0-13.2-4.2-16.3-10.3h-0.1v-0.1c-1.3-2.6-2-5.6-2-8.7c0-3.1,0.7-6.1,2-8.7v-0.4h0.2c3.1-6,9.2-10,16.1-10
					c7,0,13,4,16.1,10h0.8V150.4z M113.7,156.3h2.2c-0.2-1.8-0.6-3.5-1.3-5.1h-1.9C113.2,152.7,113.6,154.4,113.7,156.3z M112.9,164
					h1.8c0.7-1.6,1.1-3.3,1.2-5.1h-2.2C113.6,160.5,113.3,162.2,112.9,164z M113.4,166.5H112c-0.4,1-0.8,2.1-1.3,3.1
					C111.7,168.8,112.6,167.7,113.4,166.5z M105,142.5c-0.7-0.2-1.5-0.4-2.3-0.5c1.1,1.3,2.5,3.6,3.7,6.7h2.7
					c-1.1-2.1-2.6-4.2-4.8-6.2L105,142.5z M92.5,148.6h3.1c1.1-3.1,2.6-5.4,3.6-6.7c-0.7,0.1-1.4,0.2-2.1,0.4l0.2,0
					C95.1,144.3,93.6,146.5,92.5,148.6z M109.2,166.5h-2.6c-0.6,2.1-1.4,4.3-2.5,6.6c1.1-0.3,2.2-0.7,3.2-1.2l-0.7-0.1
					C106.6,171.9,108,169.8,109.2,166.5z M110.1,164c0.4-1.6,0.8-3.3,0.9-5.1h-3.1c-0.1,1.6-0.3,3.3-0.6,5.1H110.1z M97.5,151.2
					c-0.4,1.7-0.6,3.4-0.7,5.1h8.3c-0.1-1.7-0.3-3.4-0.7-5.1H97.5z M103.7,148.6c-0.7-1.8-1.5-3.6-2.7-5.4c-1.2,1.8-2.1,3.6-2.7,5.4
					H103.7z M104.4,164c0.3-1.6,0.6-3.3,0.7-5.1h-8.3c0.1,1.8,0.4,3.5,0.7,5.1H104.4z M98.2,166.5c1,3.6,2.3,6.2,2.8,7
					c0.6-1.1,1.8-3.6,2.8-7H98.2z M95.4,166.5h-3c1.2,3.2,2.6,5.2,2.6,5.2l-1.2,0.2c1.3,0.7,2.7,1.2,4.1,1.4
					C96.8,171,96,168.7,95.4,166.5z M94.8,164c-0.4-1.8-0.6-3.5-0.7-5.1h-3.5c0.1,1.8,0.5,3.6,0.9,5.1H94.8z M94.1,156.3
					c0.1-1.9,0.3-3.6,0.7-5.1h-3.3c-0.6,1.7-0.8,3.5-0.9,5.1H94.1z M107.1,151.2c0.4,1.5,0.7,3.2,0.8,5.1h3.2
					c-0.1-1.7-0.4-3.4-0.9-5.1H107.1z M91.2,170.2c-0.6-1.3-1.2-2.5-1.6-3.7h-1.7C88.8,167.9,90,169.2,91.2,170.2z M87.9,156.3
					c0.1-1.9,0.5-3.6,1-5.1h-2.1c-0.7,1.6-1.1,3.3-1.3,5.1H87.9z M85.4,158.9c0.1,1.8,0.5,3.5,1.2,5.1h2.2c-0.5-1.8-0.8-3.5-0.9-5.1
					H85.4z M88.1,148.6h1.8c1-2.1,2.2-3.6,3.1-4.7C91.1,145.1,89.4,146.7,88.1,148.6z M108.7,144.2c0.9,1,2,2.5,3,4.4h1.5
					C112,146.8,110.4,145.3,108.7,144.2z"/>
				<path class="st13" d="M172.3,66.8V51.3c8.9,0.1,16.6,6.7,16.9,15.6H172.3z M169.1,85.7c-9.2,0-16.6-7.4-16.6-16.6
					c0-9.1,7-16.6,16.1-16.6v16.9h17.1C185.6,78.5,178.2,85.7,169.1,85.7z"/>
				<path class="st13" d="M121.4,101.3h-15.9c-1.2,0-2.1-0.9-2.1-2.1v-7.3c0-1.2,0.9-2.1,2.1-2.1h15.9c1.2,0,2.1,0.9,2.1,2.1v7.3
					C123.5,100.4,122.5,101.3,121.4,101.3z M111.8,85.6h-20v3.1h-2.8v-5.8h11.4v-3h2.8v3h11.4v5.8h-2.8V85.6z M109.8,78.5H94
					c-1.2,0-2.1-0.9-2.1-2.1v-7.2c0-1.2,0.9-2.1,2.1-2.1h15.7c1.2,0,2.1,0.9,2.1,2.1v7.2C111.9,77.6,110.9,78.5,109.8,78.5z
					 M100.3,91.9v7.3c0,1.2-0.9,2.1-2.1,2.1H82.5c-1.2,0-2.1-0.9-2.1-2.1v-7.3c0-1.2,0.9-2.1,2.1-2.1h15.7
					C99.4,89.9,100.3,90.8,100.3,91.9z"/>
			</g>
			<g>
				<path class="st15" d="M483.1,255.5v6.4h-6.3c-0.4,2.2-1.2,4.2-2.4,6l4.4,4.4l-4.5,4.5l-4.3-4.3c-1.8,1.2-3.9,2.1-6.1,2.5v6.1
					h-6.4V275c-2.2-0.5-4.2-1.4-6-2.6l-4.4,4.4l-4.5-4.5l4.5-4.5c-1.1-1.8-1.9-3.8-2.3-5.9h-6.5v-6.4h6.7c0.5-2.1,1.3-4,2.4-5.6
					l-4.8-4.8l4.5-4.5l4.8,4.8c1.7-1.1,3.6-1.9,5.6-2.3v-6.8h6.4v6.8c2.1,0.4,4,1.2,5.7,2.3l4.7-4.7l4.5,4.5l-4.6,4.6
					c1.2,1.7,2.1,3.7,2.5,5.8H483.1z M460.7,251.9c-3.9,0-7.1,3.2-7.1,7.1c0,3.9,3.2,7.1,7.1,7.1c3.9,0,7.1-3.2,7.1-7.1
					C467.8,255.1,464.6,251.9,460.7,251.9z"/>
				<path class="st15" d="M514,235.6v5.4h-5.3c-0.3,1.9-1,3.6-2,5.1l3.7,3.7l-3.8,3.8l-3.7-3.7c-1.5,1-3.3,1.8-5.1,2.1v5.2h-5.4
					v-5.2c-1.8-0.4-3.6-1.1-5.1-2.2l-3.7,3.7l-3.8-3.8l3.8-3.8c-1-1.5-1.6-3.2-1.9-5H476v-5.4h5.6c0.4-1.7,1.1-3.3,2.1-4.8l-4-4
					l3.8-3.8l4.1,4.1c1.4-0.9,3-1.6,4.7-2v-5.7h5.4v5.7c1.7,0.3,3.4,1,4.8,1.9l4-4l3.8,3.8l-3.9,3.9c1,1.5,1.7,3.1,2.1,4.9H514z
					 M495.1,232.5c-3.3,0-6,2.7-6,6c0,3.3,2.7,6,6,6c3.3,0,6-2.7,6-6C501.1,235.2,498.4,232.5,495.1,232.5z"/>
			</g>
			<path class="st16" d="M376.2,68.6c0-1.2-1-2.1-2.1-2.1h-33c-1.2,0-2.1,1-2.1,2.1v17.8c0,1.2,1,2.1,2.1,2.1h16.5
				c0.6,1.3,1.4,2.4,2.4,3.4h-21c-1.9,0-3.4-1.5-3.4-3.4V54.6c0-1.9,1.5-3.4,3.4-3.4h3.4v8.5h8.5v-8.5h13.6v8.5h8.5v-8.5h3.4
				c1.9,0,3.4,1.5,3.4,3.4v18.7c-1-1.1-2.1-2-3.4-2.7V68.6z M366,47.8h5.1V58H366V47.8z M344,47.8h5.1V58H344V47.8z M369.6,71.2
				c6.3,0,11.3,5.1,11.3,11.3c0,6.3-5.1,11.3-11.3,11.3c-6.3,0-11.3-5.1-11.3-11.3C358.3,76.3,363.4,71.2,369.6,71.2z M369.6,90.4
				c4.3,0,7.9-3.5,7.9-7.9c0-4.3-3.5-7.9-7.9-7.9s-7.9,3.5-7.9,7.9C361.8,86.9,365.3,90.4,369.6,90.4z M369.4,76.7
				c0.9,0,1.7,0.8,1.7,1.7V82h3.5c0.5,0,0.8,0.4,0.8,0.8c0,0.5-0.4,0.8-0.8,0.8h-6c-0.5,0-0.8-0.4-0.8-0.8c0-0.1,0-0.3,0.1-0.4
				c0-0.2-0.1-0.3-0.1-0.5v-3.6C367.7,77.4,368.5,76.7,369.4,76.7z"/>
			<g>
				<rect x="247.1" y="140.7" class="st17" width="156.4" height="129.8"/>
				<g>
					<rect x="293.3" y="190" class="st18" width="58" height="6.4"/>
					<rect x="351.3" y="190" class="st19" width="5.8" height="6.4"/>
					<path class="st20" d="M356.7,194.9l-0.3,0.3c-0.1,0.1-0.2,0.1-0.2,0l-1.4-1.4c-0.3,0.1-0.5,0.2-0.9,0.2c-1,0-1.7-0.8-1.7-1.7
						c0-1,0.8-1.7,1.7-1.7c1,0,1.7,0.8,1.7,1.7c0,0.3-0.1,0.7-0.3,0.9l1.4,1.4C356.8,194.7,356.8,194.8,356.7,194.9z M353.9,191.1
						c-0.7,0-1.3,0.6-1.3,1.3c0,0.7,0.6,1.3,1.3,1.3c0.7,0,1.3-0.6,1.3-1.3C355.2,191.6,354.6,191.1,353.9,191.1z"/>
				</g>
				<g>
					<path class="st15" d="M340.1,174.7c0-5.5-4.4-9.9-9.9-9.9c-2.2,0-4.2,0.7-5.8,1.9c-0.7-0.3-1.4-0.6-2.2-0.6
						c-2.4,0-4.5,1.8-4.9,4.1c-3.3,0.6-5.8,3.5-5.8,7c0,0.1,0,0.2,0,0.3h28.2C339.9,176.7,340.1,175.7,340.1,174.7z"/>
					<g>
						<path d="M310.4,180.7c0-1.2,0.7-1.5,1.7-1.5c0.5,0,1.7,0.1,2.1,0.2v0.4c-0.5,0-2.1-0.1-2.1-0.1c-0.7,0-1.2,0.1-1.2,1v0.6
							c0,0.8,0.4,0.9,1,0.9h1.1c1.1,0,1.4,0.7,1.4,1.4v0.6c0,1.2-0.9,1.4-1.7,1.4c-0.4,0-1.7-0.1-2.1-0.2V185c0.4,0,1.3,0.1,2.1,0.1
							c0.5,0,1.2-0.1,1.2-0.9v-0.6c0-0.6-0.2-0.9-0.9-0.9h-1.1c-1.4,0-1.5-0.7-1.5-1.4V180.7z"/>
						<path d="M315.5,180.3c0-0.8,0.5-1.1,1.1-1.1l2.7,0.1v0.4h-2.7c-0.5,0-0.6,0.3-0.6,0.6v1.8l2.9,0.1v0.4l-2.9,0.1v1.8
							c0,0.6,0.4,0.6,0.7,0.6h2.6v0.4l-2.6,0.1c-0.6,0-1.2-0.1-1.2-1.1V180.3z"/>
						<path d="M322.4,179.2h0.5l2.2,6.3h-0.6l-0.6-1.9h-2.6l-0.7,1.9h-0.6L322.4,179.2z M323.8,183.1l-1.1-3.2l-1.2,3.2H323.8z"/>
						<path d="M326,179.2h2.6c0.8,0,1.5,0.4,1.5,1.8c0,1.6-0.8,1.8-1.2,1.8l1.3,2.7h-0.5l-1.3-2.6c-0.2,0-1.8-0.1-1.8-0.1v2.7H326
							V179.2z M328.5,182.3c0.5,0,1-0.1,1-1.3c0-1.2-0.5-1.3-1-1.3h-2.1v2.6H328.5z"/>
						<path d="M332.9,179.1c0.4,0,1.4,0.1,2,0.2v0.4c0,0-1.2-0.1-2-0.1c-1.1,0-1.6,0.5-1.6,2.7c0,1.6,0.4,2.7,1.6,2.7
							c0.9,0,2-0.1,2-0.1v0.4c-0.6,0.1-1.6,0.2-2,0.2c-1.6,0-2.1-1.4-2.1-3.2C330.8,180.3,331.2,179.1,332.9,179.1z"/>
						<path d="M336,179.2h0.5v3h3.3v-3h0.5v6.3h-0.5v-2.8h-3.3v2.8H336V179.2z"/>
					</g>
				</g>
				<rect x="249.4" y="203" class="st15" width="151.6" height="64.7"/>
				<g>
					<rect x="251.7" y="205.8" class="st20" width="30.7" height="59.8"/>
					<rect x="251.7" y="205.8" class="st21" width="30.7" height="4.7"/>
				</g>
				<g>
					<rect x="289" y="205.8" class="st20" width="30.7" height="59.8"/>
					<rect x="289" y="205.8" class="st11" width="30.7" height="4.7"/>
				</g>
				<g>
					<rect x="326.3" y="205.8" class="st20" width="30.7" height="59.8"/>
					<rect x="326.3" y="205.8" class="st22" width="30.7" height="4.7"/>
				</g>
				<g>
					<rect x="363.6" y="205.8" class="st20" width="30.7" height="59.8"/>
					<rect x="363.6" y="205.8" class="st16" width="30.7" height="4.7"/>
				</g>
				<path class="st20" d="M391.6,209.6c-0.8,0-1.5-0.7-1.5-1.5c0-0.8,0.7-1.5,1.5-1.5c0.8,0,1.5,0.7,1.5,1.5
					C393.1,208.9,392.5,209.6,391.6,209.6z M392.4,207.6l-0.2-0.2c0,0-0.1,0-0.1,0l-0.5,0.6l-0.4-0.5c0,0-0.1,0-0.1,0l-0.2,0.2
					c0,0,0,0.1,0,0.1l0.5,0.5l-0.5,0.6c0,0,0,0.1,0,0.1l0.1,0c0,0,0.1,0,0.1,0l0.6-0.5l0.5,0.5c0,0,0.1,0,0.1,0l0.1-0.1
					c0,0,0-0.1,0-0.1l-0.4-0.5L392.4,207.6C392.4,207.7,392.4,207.6,392.4,207.6z"/>
				<path class="st20" d="M354.2,209.6c-0.8,0-1.5-0.7-1.5-1.5c0-0.8,0.7-1.5,1.5-1.5c0.8,0,1.5,0.7,1.5,1.5
					C355.8,208.9,355.1,209.6,354.2,209.6z M355,207.6l-0.2-0.2c0,0-0.1,0-0.1,0l-0.5,0.6l-0.4-0.5c0,0-0.1,0-0.1,0l-0.2,0.2
					c0,0,0,0.1,0,0.1l0.5,0.5l-0.5,0.6c0,0,0,0.1,0,0.1l0.1,0c0,0,0.1,0,0.1,0l0.6-0.5l0.5,0.5c0,0,0.1,0,0.1,0l0.1-0.1
					c0,0,0-0.1,0-0.1l-0.4-0.5L355,207.6C355.1,207.7,355.1,207.6,355,207.6z"/>
				<path class="st20" d="M316.9,209.6c-0.8,0-1.5-0.7-1.5-1.5c0-0.8,0.7-1.5,1.5-1.5c0.8,0,1.5,0.7,1.5,1.5
					C318.4,208.9,317.7,209.6,316.9,209.6z M317.7,207.6l-0.2-0.2c0,0-0.1,0-0.1,0l-0.5,0.6l-0.4-0.5c0,0-0.1,0-0.1,0l-0.2,0.2
					c0,0,0,0.1,0,0.1l0.5,0.5l-0.5,0.6c0,0,0,0.1,0,0.1l0.1,0c0,0,0.1,0,0.1,0l0.6-0.5l0.5,0.5c0,0,0.1,0,0.1,0l0.1-0.1
					c0,0,0-0.1,0-0.1l-0.4-0.5L317.7,207.6C317.7,207.7,317.7,207.6,317.7,207.6z"/>
				<path class="st20" d="M279.9,209.6c-0.8,0-1.5-0.7-1.5-1.5c0-0.8,0.7-1.5,1.5-1.5c0.8,0,1.5,0.7,1.5,1.5
					C281.4,208.9,280.8,209.6,279.9,209.6z M280.7,207.6l-0.2-0.2c0,0-0.1,0-0.1,0l-0.5,0.6l-0.4-0.5c0,0-0.1,0-0.1,0l-0.2,0.2
					c0,0,0,0.1,0,0.1l0.5,0.5l-0.5,0.6c0,0,0,0.1,0,0.1l0.1,0c0,0,0.1,0,0.1,0l0.6-0.5l0.5,0.5c0,0,0.1,0,0.1,0l0.1-0.1
					c0,0,0-0.1,0-0.1l-0.4-0.5L280.7,207.6C280.7,207.7,280.7,207.6,280.7,207.6z"/>
			</g>
			<path class="st11" d="M749.3,240.3h-43.5c-1.9,0-3.5-1.6-3.5-3.5v-30.9c0-1.9,1.6-3.6,3.5-3.6h43.5c1.9,0,3.5,1.7,3.5,3.6v30.9
				C752.7,238.8,751.2,240.3,749.3,240.3z M747.5,210c0-1.5-1.2-2.8-2.8-2.8h-34.6c-1.5,0-2.8,1.2-2.8,2.8v22.4
				c0,1.5,1.2,2.8,2.8,2.8h34.6c1.5,0,2.8-1.2,2.8-2.8V210z M738.8,210.9h5.2v20.9h-5.2V210.9z M731.8,216.1h5.2v15.7h-5.2V216.1z
				 M724.9,223.1h5.2v8.7h-5.2V223.1z M717.9,218h5.2v13.8h-5.2V218z M710.9,210.9h5.2v20.9h-5.2V210.9z"/>
			<g>
				<rect x="421" y="32.4" class="st23" width="166.6" height="138.2"/>
				<rect x="421" y="32.4" class="st24" width="166.6" height="7.6"/>
				<g>
					<rect x="430.8" y="46" class="st3" width="102.9" height="62"/>
					<rect x="430.8" y="112" class="st18" width="102.9" height="25"/>
					<rect x="430.8" y="141" class="st25" width="102.9" height="25"/>
					<rect x="539" y="46" class="st3" width="39.7" height="118"/>
					<path class="st11" d="M495.9,80.8l-0.1,3.3c0,0-3.9,0.5-6.4-2c-2.4,1.7-5.3,2.7-8.5,2.7c-8.2,0-14.8-6.6-14.8-14.8
						c0-8.2,6.6-14.8,14.8-14.8c8.2,0,14.8,6.6,14.8,14.8c0,3.8-1.4,7.2-3.8,9.9C492.9,80.4,494.2,80.8,495.9,80.8z M481,82
						c2.2,0,4-1.8,4-4c0-2.2-1.8-4-4-4c-2.2,0-4,1.8-4,4C477,80.2,478.8,82,481,82z M482.8,70c0-1-0.8-1.8-1.8-1.8
						c-1,0-1.8,0.8-1.8,1.8c0,1,0.8,1.8,1.8,1.8C482,71.8,482.8,71,482.8,70z M473,66c-2.2,0-4,1.8-4,4c0,2.2,1.8,4,4,4
						c2.2,0,4-1.8,4-4C477,67.8,475.2,66,473,66z M481,58c-2.2,0-4,1.8-4,4c0,2.2,1.8,4,4,4c2.2,0,4-1.8,4-4
						C485,59.8,483.2,58,481,58z M489,66c-2.2,0-4,1.8-4,4c0,2.2,1.8,4,4,4c2.2,0,4-1.8,4-4C493,67.8,491.2,66,489,66z"/>
					<g>
						<path class="st26" d="M470.9,91.1l1.8,5.2l1.9-5.2h0.5L473,97h-0.5l-2.1-5.9H470.9z"/>
						<path class="st26" d="M476.1,91.1h0.5V97h-0.5V91.1z"/>
						<path class="st26" d="M477.7,91.1h2.1c1.8,0,2.1,1.8,2.1,3c0,1.3-0.6,2.9-2.1,2.9h-2.1V91.1z M479.8,96.5
							c1.2,0,1.6-1.2,1.6-2.4c0-1.8-0.6-2.5-1.6-2.5h-1.7v4.9H479.8z"/>
						<path class="st26" d="M482.9,92.2c0-0.8,0.5-1.1,1-1l2.5,0.1v0.3h-2.5c-0.4,0-0.6,0.2-0.6,0.6v1.7l2.7,0.1v0.4l-2.7,0.1V96
							c0,0.5,0.3,0.6,0.6,0.6h2.4v0.3l-2.4,0.1c-0.5,0-1.1-0.1-1.1-1V92.2z"/>
						<path class="st26" d="M489.5,91.1c1.4,0,2.2,0.3,2.2,3c0,2.6-0.8,2.9-2.2,2.9s-2.2-0.3-2.2-2.9
							C487.3,91.4,488.2,91.1,489.5,91.1z M489.5,96.6c1.3,0,1.8-0.3,1.8-2.5c0-2.5-0.6-2.6-1.8-2.6c-1.1,0-1.8,0.1-1.8,2.6
							C487.8,96.3,488.2,96.6,489.5,96.6z"/>
					</g>
				</g>
			</g>
			<path class="st2" d="M311.3,319.2c-1.5-0.6-2.8-1.5-3.7-2.9c-0.9-1.3-1.4-2.9-1.4-4.5v-15.2c0-0.7,0.3-1.4,0.8-1.9
				c0.5-0.5,1.2-0.8,1.9-0.8c0.7,0,1.3,0.3,1.8,0.8c0.5,0.5,0.8,1.2,0.8,1.9v1h1.2v-2.2c0-0.7,0.3-1.4,0.8-1.9
				c0.5-0.5,1.1-0.8,1.9-0.8c0.7,0,1.4,0.2,1.9,0.7c0.5,0.5,0.8,1.1,0.8,1.9v2.2h1.2v-3.8c0-0.7,0.2-1.4,0.7-1.9
				c0.5-0.5,1.1-0.8,1.9-0.8c0.7,0,1.4,0.3,1.9,0.8c0.5,0.5,0.8,1.2,0.8,1.9v3.8h1.2v-16.4c0-0.7,0.3-1.4,0.8-1.9
				c0.5-0.5,1.2-0.8,1.9-0.8c0.7,0,1.3,0.3,1.8,0.8c0.5,0.5,0.8,1.2,0.8,1.9v24.1h1v-9.7c0-0.7,0.3-1.3,0.8-1.8
				c0.5-0.5,1.2-0.8,1.9-0.8c0.7,0,1.4,0.3,1.9,0.8c0.5,0.5,0.8,1.1,0.8,1.9v16.1c0,1.8-0.5,3.4-1.6,4.8c-1.1,1.4-2.5,2.4-4.1,2.9
				v3.8h-20.2V319.2z"/>
			<path class="st16" d="M263.9,335.3l3.4,4.4l-17.5-1.8l5.2-14.3l3.5,4.6c13.8-5.4,13.6-17.1,13.6-17.1
				C278.3,324.9,268,332.8,263.9,335.3z M255.5,315.3c-13.8,5.4-13.6,17.1-13.6,17.1c-6.2-13.7,4.1-21.7,8.2-24.2l-3.3-4.4l17.5,1.8
				l-5.2,14.3L255.5,315.3z"/>
			<path class="st15" d="M726.3,296.8L726.3,296.8c-22.2-4.8-19.5-37.5-19.5-37.5c11.7,1.4,18.5-5.9,19.4-7v-0.1c0,0,0,0,0.1,0.1
				c0,0,0.1-0.1,0.1-0.1v0.1c0.9,1.1,7.7,8.4,19.4,7C745.7,259.3,748.4,292,726.3,296.8z M741.6,262c-9.2,1.1-14.6-4.5-15.3-5.4
				v-0.1c0,0,0,0,0,0.1c0,0,0-0.1,0-0.1v0.1c-0.7,0.9-6.1,6.5-15.3,5.4c0,0-2.2,27.2,15.4,31h0C743.8,289.2,741.6,262,741.6,262z
				 M726.3,290.1L726.3,290.1c-0.4-0.1-0.7-0.2-1.1-0.3l13.1-14.5C737,281.5,733.9,288.4,726.3,290.1z M719.6,286.5l19.5-21.1
				c0,1,0,2.7-0.1,4.6l-16.7,18.5C721.3,287.9,720.4,287.3,719.6,286.5z M713.5,264.3c7.7,0.9,12.2-3.8,12.8-4.5v-0.1c0,0,0,0,0,0
				c0,0,0,0,0,0v0.1c0.5,0.6,3.9,4.1,9.7,4.6l-18.3,19.8C712.5,276.4,713.5,264.3,713.5,264.3z"/>
			<g>
				<rect x="541.3" y="191.6" class="st4" width="132.2" height="109.7"/>
				<rect x="545.8" y="195.3" class="st3" width="37.9" height="102.8"/>
				<rect x="545.8" y="195.3" class="st26" width="37.9" height="6.5"/>
				<g>
					<rect x="587.1" y="195.3" class="st3" width="82.8" height="24.6"/>
					<rect x="587.1" y="195.3" class="st2" width="20.3" height="24.6"/>
				</g>
				<g>
					<rect x="587.1" y="221.1" class="st3" width="82.8" height="24.6"/>
					<rect x="587.1" y="221.1" class="st26" width="20.3" height="24.6"/>
				</g>
				<g>
					<rect x="587.1" y="247" class="st3" width="82.8" height="24.6"/>
					<rect x="587.1" y="247" class="st27" width="20.3" height="24.6"/>
				</g>
				<g>
					<rect x="587.1" y="272.8" class="st3" width="82.8" height="24.6"/>
					<rect x="587.1" y="272.8" class="st14" width="20.3" height="24.6"/>
				</g>
				<path class="st20" d="M603.1,213.6h-0.9c-0.3,0-0.5-0.2-0.5-0.5v-1.4c0-0.3,0.2-0.5,0.5-0.5h0.9c0.3,0,0.5,0.2,0.5,0.5v1.4
					C603.6,213.4,603.4,213.6,603.1,213.6z M603.1,210.8h-0.9c-0.3,0-0.5-0.2-0.5-0.5v-1.8c0-0.3,0.2-0.5,0.5-0.5h0.9
					c0.3,0,0.5,0.2,0.5,0.5v1.8C603.6,210.6,603.4,210.8,603.1,210.8z M603.1,207.6h-0.9c-0.3,0-0.5-0.2-0.5-0.5v-1.8
					c0-0.3,0.2-0.5,0.5-0.5h0.9c0.3,0,0.5,0.2,0.5,0.5v1.8C603.6,207.4,603.4,207.6,603.1,207.6z M603.1,204.4h-0.9
					c-0.3,0-0.5-0.2-0.5-0.5v-1.8c0-0.3,0.2-0.5,0.5-0.5h0.9c0.3,0,0.5,0.2,0.5,0.5v1.8C603.6,204.2,603.4,204.4,603.1,204.4z
					 M600.4,213.6h-6.4c-0.3,0-0.5-0.2-0.5-0.5v-5.5c0-0.3,0.2-0.5,0.5-0.5h6.4c0.3,0,0.5,0.2,0.5,0.5v5.5
					C600.8,213.4,600.6,213.6,600.4,213.6z M600.4,206.7h-6.4c-0.3,0-0.5-0.2-0.5-0.5v-4.2c0-0.3,0.2-0.5,0.5-0.5h6.4
					c0.3,0,0.5,0.2,0.5,0.5v4.2C600.8,206.5,600.6,206.7,600.4,206.7z M592.1,213.6h-0.9c-0.3,0-0.5-0.2-0.5-0.5v-1.4
					c0-0.3,0.2-0.5,0.5-0.5h0.9c0.3,0,0.5,0.2,0.5,0.5v1.4C592.5,213.4,592.3,213.6,592.1,213.6z M592.1,210.8h-0.9
					c-0.3,0-0.5-0.2-0.5-0.5v-1.8c0-0.3,0.2-0.5,0.5-0.5h0.9c0.3,0,0.5,0.2,0.5,0.5v1.8C592.5,210.6,592.3,210.8,592.1,210.8z
					 M592.1,207.6h-0.9c-0.3,0-0.5-0.2-0.5-0.5v-1.8c0-0.3,0.2-0.5,0.5-0.5h0.9c0.3,0,0.5,0.2,0.5,0.5v1.8
					C592.5,207.4,592.3,207.6,592.1,207.6z M592.1,204.4h-0.9c-0.3,0-0.5-0.2-0.5-0.5v-1.8c0-0.3,0.2-0.5,0.5-0.5h0.9
					c0.3,0,0.5,0.2,0.5,0.5v1.8C592.5,204.2,592.3,204.4,592.1,204.4z"/>
				<path class="st20" d="M603.8,290.4h-13.3c-0.3,0-0.5-0.2-0.5-0.5v-9.5c0-0.3,0.2-0.5,0.5-0.5h13.3c0.3,0,0.5,0.2,0.5,0.5v9.5
					C604.3,290.2,604.1,290.4,603.8,290.4z M603.3,280.9H591v8.6h12.4V280.9z M598.8,288.9l-7.3,0v-3.2
					C596.6,285.6,598.8,288.9,598.8,288.9z M596.2,286c0,0,2.7-2.2,6.6-1.7v4.6h-3.4C599.4,288.9,598.9,287.4,596.2,286z
					 M594.2,284.8c-0.6,0-1.1-0.5-1.1-1.1c0-0.6,0.5-1.1,1.1-1.1c0.6,0,1.1,0.5,1.1,1.1C595.3,284.3,594.8,284.8,594.2,284.8z"/>
				<path class="st20" d="M600.2,234.3l1.6,5.4l-4.7-3.2l-4.7,3.2l1.6-5.4l-4.5-3.4l5.7-0.1l1.9-5.3l1.9,5.3l5.7,0.1L600.2,234.3z
					 M598.2,231.7l-1-2.9l-1,2.9l-3.1,0.1l2.5,1.9l-0.9,3l2.6-1.8l2.6,1.8l-0.9-3l2.5-1.9L598.2,231.7z"/>
				<path class="st20" d="M603.5,266.3h-12.6c-0.3,0-0.5-0.2-0.5-0.5V257c0-0.3,0.2-0.5,0.5-0.5h4.6l-2-2.1
					c-0.2,0.1-0.4,0.2-0.6,0.2c-0.5-0.1-0.8-0.5-0.8-1c0.1-0.5,0.5-0.8,1-0.8c0.5,0.1,0.8,0.5,0.8,1l2.6,2.7h0.2l2.6-2.7
					c-0.1-0.5,0.3-0.9,0.8-1c0.5-0.1,0.9,0.3,1,0.8c0.1,0.5-0.3,0.9-0.8,1c-0.2,0-0.5,0-0.6-0.2l-2,2.1h5.9c0.3,0,0.5,0.2,0.5,0.5
					v8.8C603.9,266,603.7,266.3,603.5,266.3z M601.2,259.2c0-0.7-0.6-1.3-1.3-1.3H593c-0.7,0-1.3,0.6-1.3,1.3v4.5
					c0,0.7,0.6,1.3,1.3,1.3h6.8c0.7,0,1.3-0.6,1.3-1.3V259.2z M602.4,258.1c-0.4,0-0.7,0.3-0.7,0.7c0,0.4,0.3,0.7,0.7,0.7
					c0.4,0,0.7-0.3,0.7-0.7C603.1,258.5,602.8,258.1,602.4,258.1z M602.4,260.1c-0.4,0-0.7,0.3-0.7,0.7c0,0.4,0.3,0.7,0.7,0.7
					c0.4,0,0.7-0.3,0.7-0.7C603.1,260.4,602.8,260.1,602.4,260.1z"/>
			</g>
			<g>
				<g>
					<rect x="249" y="37" class="st28" width="52.4" height="83.8"/>
					<rect x="252.7" y="39.8" class="st15" width="45" height="26.7"/>
					<rect x="252.7" y="68.2" class="st29" width="45" height="15.1"/>
					<rect x="252.7" y="85.9" class="st16" width="45" height="15.1"/>
					<rect x="252.7" y="103.3" class="st11" width="45" height="15.1"/>
					<rect x="252.7" y="103.3" class="st30" width="12.7" height="15.1"/>
					<rect x="252.7" y="85.9" class="st31" width="12.7" height="15.1"/>
					<rect x="252.7" y="68.2" class="st32" width="12.7" height="15.1"/>
					<rect x="280.3" y="41.5" class="st20" width="15.7" height="23.2"/>
					<circle class="st16" cx="288.4" cy="48.3" r="4.9"/>
					<rect x="254.6" y="41.3" class="st11" width="22.7" height="3"/>
				</g>
				<g>
					<path class="st3" d="M268,72h0.6l1.6,5.1l1.6-5.1h0.6l0.5,5.9h-0.5l-0.5-5.1l-1.6,5.1H270l-1.6-5.1l-0.4,5.1h-0.5L268,72z"/>
					<path class="st3" d="M276,71.9c1.4,0,2.2,0.3,2.2,3c0,2.6-0.8,2.9-2.2,2.9c-1.4,0-2.2-0.3-2.2-2.9
						C273.8,72.2,274.7,71.9,276,71.9z M276,77.4c1.3,0,1.8-0.3,1.8-2.5c0-2.5-0.6-2.6-1.8-2.6c-1.1,0-1.8,0.1-1.8,2.6
						C274.3,77.1,274.7,77.4,276,77.4z"/>
					<path class="st3" d="M279.4,72h2.2c1.2,0,1.5,0.8,1.5,1.5c0,0.6-0.3,1.2-0.8,1.3c0.4,0.1,0.9,0.5,0.9,1.4
						c0,0.8-0.3,1.6-1.5,1.6h-2.2V72z M281.5,74.5c0.6,0,1.1-0.4,1.1-1.1c0-0.8-0.5-1-1.1-1h-1.7v2.1H281.5z M281.5,77.4
						c0.5,0,1.1-0.2,1.1-1.2c0-0.6-0.4-1.2-1.1-1.2h-1.7v2.4H281.5z"/>
					<path class="st3" d="M284.1,72h0.5v5.9h-0.5V72z"/>
					<path class="st3" d="M285.8,72h0.5v4.8c0,0.5,0.3,0.6,0.6,0.6h2.4v0.5h-2.4c-0.5,0-1.1-0.1-1.1-1V72z"/>
					<path class="st3" d="M290.3,73c0-0.8,0.5-1.1,1-1l2.5,0.1v0.3h-2.5c-0.4,0-0.6,0.2-0.6,0.6v1.7l2.7,0.1v0.4l-2.7,0.1v1.7
						c0,0.5,0.3,0.6,0.6,0.6h2.4v0.3l-2.4,0.1c-0.5,0-1.1-0.1-1.1-1V73z"/>
				</g>
			</g>
		</g>
		<g>
			<g>
				<g>
					<polygon class="st2" points="322.9,465.2 331.8,534 337.8,662 474.9,662 481.7,534 489.8,465.2 					"/>
					<g>
						<path class="st33" d="M432,474.5c0,0-7.6,25.2-25.7,25c-17.3-0.2-23.2-25-23.2-25v-45.9H432V474.5z"/>
						<path class="st34" d="M432,451.1v-22.5h-48.9v20.9C396.9,459,416.4,458.8,432,451.1z"/>
						<path class="st33" d="M458.6,372.5c-3-0.9-6.2,0.6-8.5,2.4c0.5-4.7,0.9-9.3,1.2-13.3c1.3-15.9,0-23.5-1.9-31.4
							c-5.2-21.7-20.6-26.8-42.3-26.8c-19,0-35.8,3.4-42.1,19.9c-4.4,11.4-4.1,21.1-3.5,33.9c0.2,4.9,0.7,10.1,1.3,15.3
							c-1.5-0.4-3.5-0.5-6,0c-6,4.7-3.4,20.1,2,24.8c4,3.5,6.4,3.7,7.9,2.3c0.1,0.7,0.2,1.5,0.4,2.2c0.9,5.7,0.7,10.5,2.6,16
							c1.6,4.9,14.6,20.3,19.3,24.8c7.1,6.8,10.4,5.8,20.2,5.8c12.6,0,15.2-4.4,18.4-8.6c2.2-2.8,16.4-20.2,17-23.6
							c0.7-4.2,2.3-13.3,3-18.4c1.2,3.2,3.9,4.1,9-0.5C461.9,392.7,464.5,377.2,458.6,372.5z"/>
						<path class="st26" d="M372.1,377.3c0,0-6.1-0.5-7.7-4.5c-2.8-6.8-3.3-19.8-3.3-25.6c0-12.7-0.6-28.8,8.5-38.4
							c11.1-11.7,29.9-11,45.1-11c6.6,0,11.8,0.1,17.3,2.9c7.8,3.8,12.6,9,17.1,16.7c6.2,10.7,4.3,22.7,4.9,34.6
							c0.5,10.3,1.6,20.9-9.3,25.1c-1.7-4.9,0.1-12.3-0.1-17.5c-0.2-5.3-0.1-11.7-2.2-16.7c-3.9-8.8-10.1-5.8-17.5-3.9
							c-10.9,2.9-23.1,4.3-34.4,2.5c-6.2-1-15.6-6-18.4,2.3c-1.9,5.5-0.3,13.1-0.4,18.8C371.7,365.5,372.1,377.3,372.1,377.3z"/>
						<polygon class="st33" points="414.2,405.4 408.8,410.7 403.4,405.4 408.8,407.4 						"/>
					</g>
					<g>
						<path class="st2" d="M322.9,465.2c0,0-64.2,128-70.4,142.4c-1.4,3.2-1.7,6.5-2.3,9.4c-3.2,16,9.1,30.9,25.4,30.9l43.1,3
							c0,0,16.3,1.4,17.4-20.1c0.8-15.3-8.2-24.6-8.2-24.6l-20.8-5.6l25.7-62.9C332.8,537.6,323.8,465.2,322.9,465.2z"/>
						<path class="st2" d="M292.5,638c0,11.3,13.5,11,24.5,11s18.5-9.7,18.5-21s-9.4-24-19-18.5C303.5,617,292.5,631,292.5,638z"/>
						<path class="st34" d="M334.1,620.3c-0.9-2.5-2.1-4.9-3.7-6.8c-1.4-0.9-3.3-1.6-5.7-2c-2.8-0.5-6.1-1-9.5-1.2
							c-12.5,7.6-22.8,21-22.8,27.8c0,2.4,0.6,4.3,1.7,5.8c3.5,2,9.6-5.3,14.8-5.8c7-0.7,10.2-0.7,17-1.5
							C330.5,631.4,334.1,625.3,334.1,620.3z"/>
						<path class="st33" d="M302.5,628c8-8,12.5-9.9,18-13c7-3.9,9.7-1.6,17.5-0.1c7.2,1.4,33.3,26.8,22.8,30.7
							c-5.3,1.9-7.3-13.1-22.2-20.9c3.1,2.8,19.9,19.9,12,22.5c-5.1,1.6-6.2-6.9-9-10.2c-2.8-3.3-6.4-6.2-9.4-9.3
							c1.9,2.3,16.6,18.7,9.2,20.9c-5.9,1.7-9.6-13.1-19.9-17.2c4.7,5,15,16.9,7.4,18.6c-2.8,0.6-7.6-7.9-10.5-11.2
							c-3.1-3.5-5.8,0.4-10.2-0.3C298.5,636.9,301.8,630.8,302.5,628z"/>
					</g>
					<g>
						<path class="st2" d="M490,465.2c0,0,64.2,128,70.4,142.4c1.4,3.2,1.7,6.5,2.3,9.4c3.2,16-9.1,30.9-25.4,30.9l-43.1,3
							c0,0-16.3,1.4-17.4-20.1c-0.8-15.3,8.2-24.6,8.2-24.6l20.8-5.6l-25.7-62.9C480.2,537.6,489.2,465.2,490,465.2z"/>
						<path class="st2" d="M520.5,638c0,11.3-13.5,11-24.5,11s-18.5-9.7-18.5-21s9.4-24,19-18.5C509.5,617,520.5,631,520.5,638z"/>
						<path class="st34" d="M478.8,620.3c0.9-2.5,2.1-4.9,3.7-6.8c1.4-0.9,3.3-1.6,5.7-2c2.8-0.5,6.1-1,9.5-1.2
							c12.5,7.6,22.8,21,22.8,27.8c0,2.4-0.6,4.3-1.7,5.8c-3.5,2-9.6-5.3-14.8-5.8c-7-0.7-10.2-0.7-17-1.5
							C482.5,631.4,478.9,625.3,478.8,620.3z"/>
						<path class="st33" d="M510.5,628c-8-8-12.5-9.9-18-13c-7-3.9-9.7-1.6-17.5-0.1c-7.2,1.4-33.3,26.8-22.8,30.7
							c5.3,1.9,7.3-13.1,22.2-20.9c-3.1,2.8-19.9,19.9-12,22.5c5.1,1.6,6.2-6.9,9-10.2c2.8-3.3,6.4-6.2,9.4-9.3
							c-1.9,2.3-16.6,18.7-9.2,20.9c5.9,1.7,9.6-13.1,19.9-17.2c-4.7,5-15,16.9-7.4,18.6c2.8,0.6,7.6-7.9,10.5-11.2
							c3.1-3.5,5.8,0.4,10.2-0.3C514.4,636.9,511.2,630.8,510.5,628z"/>
					</g>
				</g>
				<g class="st35">
					<polygon class="st2" points="406.3,465.2 406.3,662 474.9,662 481.7,534 489.8,465.2 					"/>
					<g>
						<path class="st33" d="M406.3,428.6v70.9c0,0,0,0,0,0c18,0.2,25.7-25,25.7-25v-45.9H406.3z"/>
						<path class="st34" d="M406.3,428.6v28.2c8.7,0.3,17.7-1.7,25.7-5.7v-22.5H406.3z"/>
						<path class="st33" d="M458.6,372.5c-3-0.9-6.2,0.6-8.5,2.4c0.5-4.7,0.9-9.3,1.2-13.3c1.3-15.9,0-23.5-1.9-31.4
							c-5.2-21.7-20.6-26.8-42.3-26.8c-0.2,0-0.5,0-0.7,0v145c0.9,0,1.8,0,2.8,0c12.6,0,15.2-4.4,18.4-8.6
							c2.2-2.8,16.4-20.2,17-23.6c0.7-4.2,2.3-13.3,3-18.4c1.2,3.2,3.9,4.1,9-0.5C461.9,392.7,464.5,377.2,458.6,372.5z"/>
						<path class="st26" d="M454,352c-0.5-11.9,1.4-23.9-4.9-34.6c-4.5-7.7-9.3-12.9-17.1-16.7c-5.5-2.7-10.7-2.9-17.3-2.9
							c-2.7,0-5.5,0-8.3,0v44.5c6.3-0.4,12.7-1.6,18.6-3.1c7.4-2,13.5-4.9,17.5,3.9c2.2,4.9,2,11.4,2.2,16.7
							c0.2,5.2-1.6,12.6,0.1,17.5C455.6,373,454.4,362.3,454,352z"/>
						<polygon class="st33" points="403.4,405.4 406.3,408.3 406.3,406.5 						"/>
						<polygon class="st33" points="414.2,405.4 408.8,407.4 406.3,406.5 406.3,408.3 408.8,410.7 						"/>
					</g>
					<g>
						<path class="st2" d="M490,465.2c0,0,64.2,128,70.4,142.4c1.4,3.2,1.7,6.5,2.3,9.4c3.2,16-9.1,30.9-25.4,30.9l-43.1,3
							c0,0-16.3,1.4-17.4-20.1c-0.8-15.3,8.2-24.6,8.2-24.6l20.8-5.6l-25.7-62.9C480.2,537.6,489.2,465.2,490,465.2z"/>
						<path class="st2" d="M520.5,638c0,11.3-13.5,11-24.5,11s-18.5-9.7-18.5-21s9.4-24,19-18.5C509.5,617,520.5,631,520.5,638z"/>
						<path class="st34" d="M478.8,620.3c0.9-2.5,2.1-4.9,3.7-6.8c1.4-0.9,3.3-1.6,5.7-2c2.8-0.5,6.1-1,9.5-1.2
							c12.5,7.6,22.8,21,22.8,27.8c0,2.4-0.6,4.3-1.7,5.8c-3.5,2-9.6-5.3-14.8-5.8c-7-0.7-10.2-0.7-17-1.5
							C482.5,631.4,478.9,625.3,478.8,620.3z"/>
						<path class="st33" d="M510.5,628c-8-8-12.5-9.9-18-13c-7-3.9-9.7-1.6-17.5-0.1c-7.2,1.4-33.3,26.8-22.8,30.7
							c5.3,1.9,7.3-13.1,22.2-20.9c-3.1,2.8-19.9,19.9-12,22.5c5.1,1.6,6.2-6.9,9-10.2c2.8-3.3,6.4-6.2,9.4-9.3
							c-1.9,2.3-16.6,18.7-9.2,20.9c5.9,1.7,9.6-13.1,19.9-17.2c-4.7,5-15,16.9-7.4,18.6c2.8,0.6,7.6-7.9,10.5-11.2
							c3.1-3.5,5.8,0.4,10.2-0.3C514.4,636.9,511.2,630.8,510.5,628z"/>
					</g>
				</g>
			</g>
			<g>
				<g>
					<path class="st36" d="M516.4,662.4h-231v-9.9c0-1.8,1.4-3.2,3.2-3.2h224.6c1.8,0,3.2,1.4,3.2,3.2V662.4z"/>
					<g>
						<g>
							<g>
								<g>
									<path class="st37" d="M313.6,641.8h182.6c2.1,0,3.8-1.7,3.8-3.8V492.4c0-2.1-1.7-3.8-3.8-3.8H313.6c-2.1,0-3.8,1.7-3.8,3.8
										V638C309.7,640.1,311.5,641.8,313.6,641.8z"/>
								</g>
							</g>
							<polygon class="st38" points="456,615.3 354,615.3 349.6,610.8 460.4,610.8 							"/>
							<polygon points="362.8,614.1 356.9,614.1 355.4,611.9 362.4,611.9 							"/>
							<rect x="366.6" y="612.1" width="3.7" height="1.2"/>
							<rect x="372.4" y="612.1" width="3.7" height="1.2"/>
							<rect x="377.7" y="612.1" width="3.7" height="1.2"/>
							<rect x="382.7" y="612.1" width="3.7" height="1.2"/>
							<rect x="420.8" y="612.1" width="5.5" height="1.2"/>
							<rect x="428.9" y="612.1" width="5.5" height="1.2"/>
							<g>
								<polygon points="452.5,614.4 446.1,614.4 449.1,611.4 455.5,611.4 								"/>
								<polygon points="449.4,611.7 447,614.1 449.4,614.1 451.8,611.7 								"/>
								<polygon class="st39" points="454.5,612.8 452.2,611.7 450.1,614.1 452.4,615.1 								"/>
								<polygon class="st40" points="452.2,611.7 454.8,611.7 454.6,612.8 								"/>
								<ellipse class="st41" cx="452.2" cy="613.5" rx="0.6" ry="0.6"/>
							</g>
						</g>
						<path class="st39" d="M424,649.9h-8V611h-22v38.9h-8c-9.9,0-18,5.8-18,13.1l0,0h74l0,0C442,655.8,433.9,649.9,424,649.9z"/>
					</g>
					<path d="M372.5,799.4c-2.5-12.3-5.2-22.1-10.8-33.3c-13.5-26.6-26.1-55-19.9-84.1c1.9-8.8,5.4-16.7,8.9-24.4
						c4.8-10.8,9.8-21.9,9.9-35.3h1.1l1-4.5v-6h-6.9v6.2c0,0,0.9,4.2,1,4.2h0.7c0,12.8-4.7,23.1-9.6,34.1c-3.5,7.8-7.1,15.8-9.1,25
						c-6.4,30.1,6.4,59,20.2,86.1c5.5,10.8,8.1,20.3,10.5,32.2l-0.3,0.3c-0.1-0.1-0.1-0.2-0.1-0.2c0,0.1,0,0.2,0.1,0.3
						c0.1,1,0.6,1.6,1.4,1.7c0.1,0,0.2,0,0.3,0c1,0,1.5-1,1.7-1.5l0.2-0.4L372.5,799.4z M370,799.3l-0.3-0.1
						c0.2-0.2,0.5-0.3,0.9-0.4L370,799.3z"/>
					<g>
						<path class="st36" d="M238.7,641H234c-8.3,0-15,5.3-15,11.8l2.3,9.6h30l2.3-9.6C253.7,646.3,247,641,238.7,641z"/>
						<path class="st42" d="M246.7,644.4c-3.2-2.6-8.6-2.1-8.6-2.1v1.1c0.5,0.7,0.9,1.9,0.9,3.3c0,1.8-0.3,2.8-0.9,3.4v1.3l8.6,0.1
							l4.4-3C251,648.4,249.2,646.4,246.7,644.4z"/>
						<path class="st39" d="M238.7,646.8c0-2.1-0.8-3.4-1.8-3.4s-1.8,1.1-1.8,3.4c0,2.5,0.8,3.4,1.8,3.4S238.7,649.3,238.7,646.8z"
							/>
						<path class="st42" d="M234.7,646.7c0-1.7,0.3-2.8,0.9-3.4v-1c0,0-4.1-0.6-8.6,2.1c-2.8,1.7-4.4,4-4.4,4l4.4,3l8.6-0.1v-1.3
							C235.1,649.5,234.7,648.4,234.7,646.7z"/>
					</g>
					<path d="M366.6,612.2v3.2l1,1.5h0c0,3.9-1.3,9.4-2.3,13.9c-0.3,1.5-0.7,2.9-0.9,4c-0.4,2.1-1.1,4.1-1.7,6.1
						c-1,3.4-2.1,6.9-2.3,10.7c-0.5,8.6,0.1,17.3,2.1,27.2c1.8,8.9,4.7,31.1-5.5,45.8c-11.3,16.3-29.1,26.4-46.3,26.6
						c-0.1,0-0.2,0-0.3,0c-8.4,0-15.1-3.4-19.9-10c-11.4-15.8-9.3-45-4.3-59.9c2.6-7.6,4.4-15.5-4.3-20.4c-2.6-1.5-5.2-1.5-7.6-1.6
						c-2.5-0.1-4.8-0.1-7.3-1.6c-0.8-0.5-1.5-1-2.2-1.4c-4-2.6-7-4.5-13-2.5c-1.6,0.5-2.9,1.1-4.2,1.7c-3.1,1.4-5.6,2.6-9.2,1.4
						c-0.3-0.1-0.6,0.1-0.7,0.4l-0.1,0.3c-0.1,0.3,0.1,0.7,0.4,0.8c4.2,1.3,7.2-0.1,10.3-1.5c1.3-0.6,2.6-1.2,4.1-1.7
						c5.4-1.8,7.8-0.2,11.7,2.4c0.7,0.5,1.4,0.9,2.2,1.4c2.8,1.7,5.5,1.8,8,1.9c2.4,0.1,4.6,0.1,6.9,1.4c7.7,4.3,6.1,11.3,3.7,18.6
						c-5.1,15.1-7.3,45,4.5,61.2c5.1,7.1,12.2,10.6,21.1,10.6c0.1,0,0.2,0,0.3,0c17.7-0.1,35.9-10.6,47.5-27.2
						c10.5-15.1,7.5-37.9,5.7-46.9c-1.9-9.8-2.6-18.3-2.1-26.8c0.2-3.7,1.3-7.1,2.3-10.4c0.6-2,1.2-4.1,1.7-6.2
						c0.2-1.2,0.6-2.5,0.9-4c1.1-4.6,2.4-10.2,2.4-14.3l0,0l1.1-1.6v-3.2H366.6z"/>
					<g>
						<path class="st43" d="M423.6,617.9c-0.4,6.6-16.9,12.7-22.4,27.1s-4.3,38.7,3.5,53.5s10.5,43,3.9,63.9
							c-6.6,20.9-17.8,37.7-17.8,37.7"/>
						<polygon points="425.7,618.7 421.6,618.7 421.1,612.8 426.1,612.8 						"/>
					</g>
					<g>
						<path class="st44" d="M374.1,616.5c-0.2,12-6.8,29.1-6.4,38.8c0.7,16.8,4,32.2,6.8,39c3.9,9.9,8.9,27.3,8.2,43.5
							c-0.8,19.2,16.9,35.2,39,30.5c18.8-4,29.5-19,30.5-35.5c0.8-13.3,1.8-33,7.5-49c3.2-9,3.5-23.8-0.5-25s-7.8,6-15-1.5"/>
						<polygon points="375.9,615 374.9,616.5 373.5,616.5 372.5,615 372.5,612.2 375.9,612.2 						"/>
					</g>
					<g>
						<path class="st45" d="M319.2,492.4v6.4l1.1,0.6v-6.5h1.6v7.2l2.4,1.2v-8.4h1.6v9.2l2.4,1.2v-10.4h1.6V504l2.4,1.2v-12.4h1.6
							V506l2.4,1.2v-14.4h1.6V508l2.4,1.2v-16.3h1.6v17.1l2.4,1.2v-18.3h1.6v19.1l2.4,1.2v-20.3h1.6v21.1l2.4,1.2v-22.3h1.6v23
							l2.4,1.2v-24.2h1.6v25l2.4,1.2v-26.2h1.6v27l2.4,1.2v-28.2h1.6v29l2.4,1.2v-30.2h1.6v31l2.4,1.2v-32.1h1.6v32.9l2.4,1.2v-34.1
							h1.6v34.9l2.4,1.2v-36.1h1.6v36.5h-0.7l1.4,0.7h44.5l1.4-0.7h-0.2v-36.5h1.6v35.9l2.4-1.2v-34.7h1.6v33.9l2.4-1.2v-32.7h1.6
							v31.9l2.4-1.2v-30.7h1.6v29.9l2.4-1.2v-28.7h1.6v27.9l2.4-1.2v-26.8h1.6v26l2.4-1.2v-24.8h1.6v24l2.4-1.2v-22.8h1.6v22
							l2.4-1.2v-20.8h1.6v20l2.4-1.2v-18.9h1.6v18.1l2.4-1.2v-16.9h1.6v16.1l2.4-1.2v-14.9h1.6v14.1l2.4-1.2v-12.9h1.6V505l2.4-1.2
							v-11h1.6V503l2.4-1.2v-9h1.6v8.2l2.4-1.2v-7h1.6v6.2l0.6-0.3v-6.4H319.2z M385.9,529.4h-1.6v-36.5h1.6V529.4z M389.9,529.4
							h-1.6v-36.5h1.6V529.4z M393.9,529.4h-1.6v-36.5h1.6V529.4z M397.9,529.4h-1.6v-36.5h1.6V529.4z M401.9,529.4h-1.6v-36.5h1.6
							V529.4z M405.9,529.4h-1.6v-36.5h1.6V529.4z M409.9,529.4h-1.6v-36.5h1.6V529.4z M413.9,529.4h-1.6v-36.5h1.6V529.4z
							 M417.9,529.4h-1.6v-36.5h1.6V529.4z M421.9,529.4h-1.6v-36.5h1.6V529.4z M425.9,529.4h-1.6v-36.5h1.6V529.4z"/>
						<polygon class="st46" points="320.3,492.8 320.3,499.3 321.9,500.1 321.9,492.8 						"/>
						<polygon class="st46" points="324.3,492.8 324.3,501.3 325.9,502 325.9,492.8 						"/>
						<polygon class="st46" points="328.3,492.8 328.3,503.2 329.9,504 329.9,492.8 						"/>
						<polygon class="st46" points="332.3,492.8 332.3,505.2 333.9,506 333.9,492.8 						"/>
						<polygon class="st46" points="336.3,492.8 336.3,507.2 337.9,508 337.9,492.8 						"/>
						<polygon class="st46" points="340.3,492.8 340.3,509.2 341.9,509.9 341.9,492.8 						"/>
						<polygon class="st46" points="344.3,492.8 344.3,511.1 345.9,511.9 345.9,492.8 						"/>
						<polygon class="st46" points="348.3,492.8 348.3,513.1 349.9,513.9 349.9,492.8 						"/>
						<polygon class="st46" points="352.3,492.8 352.3,515.1 353.9,515.9 353.9,492.8 						"/>
						<polygon class="st46" points="356.3,492.8 356.3,517.1 357.9,517.8 357.9,492.8 						"/>
						<polygon class="st46" points="360.3,492.8 360.3,519 361.9,519.8 361.9,492.8 						"/>
						<polygon class="st46" points="364.3,492.8 364.3,521 365.9,521.8 365.9,492.8 						"/>
						<polygon class="st46" points="368.3,492.8 368.3,523 369.9,523.8 369.9,492.8 						"/>
						<polygon class="st46" points="372.3,492.8 372.3,525 373.9,525.7 373.9,492.8 						"/>
						<polygon class="st46" points="376.3,492.8 376.3,526.9 377.9,527.7 377.9,492.8 						"/>
						<polygon class="st46" points="381.9,492.8 380.3,492.8 380.3,528.9 381.2,529.4 381.9,529.4 						"/>
						<rect x="384.3" y="492.8" class="st46" width="1.6" height="36.5"/>
						<rect x="388.3" y="492.8" class="st46" width="1.6" height="36.5"/>
						<rect x="392.3" y="492.8" class="st46" width="1.6" height="36.5"/>
						<rect x="396.3" y="492.8" class="st46" width="1.6" height="36.5"/>
						<rect x="400.3" y="492.8" class="st46" width="1.6" height="36.5"/>
						<rect x="404.3" y="492.8" class="st46" width="1.6" height="36.5"/>
						<rect x="408.3" y="492.8" class="st46" width="1.6" height="36.5"/>
						<rect x="412.3" y="492.8" class="st46" width="1.6" height="36.5"/>
						<rect x="416.3" y="492.8" class="st46" width="1.6" height="36.5"/>
						<rect x="420.3" y="492.8" class="st46" width="1.6" height="36.5"/>
						<rect x="424.3" y="492.8" class="st46" width="1.6" height="36.5"/>
						<polygon class="st46" points="428.3,492.8 428.3,529.4 428.5,529.4 429.9,528.7 429.9,492.8 						"/>
						<polygon class="st46" points="432.3,492.8 432.3,527.5 433.9,526.7 433.9,492.8 						"/>
						<polygon class="st46" points="436.3,492.8 436.3,525.5 437.9,524.7 437.9,492.8 						"/>
						<polygon class="st46" points="440.3,492.8 440.3,523.5 441.9,522.7 441.9,492.8 						"/>
						<polygon class="st46" points="444.3,492.8 444.3,521.5 445.9,520.8 445.9,492.8 						"/>
						<polygon class="st46" points="448.3,492.8 448.3,519.6 449.9,518.8 449.9,492.8 						"/>
						<polygon class="st46" points="452.3,492.8 452.3,517.6 453.9,516.8 453.9,492.8 						"/>
						<polygon class="st46" points="456.3,492.8 456.3,515.6 457.9,514.8 457.9,492.8 						"/>
						<polygon class="st46" points="460.3,492.8 460.3,513.6 461.9,512.9 461.9,492.8 						"/>
						<polygon class="st46" points="464.3,492.8 464.3,511.7 465.9,510.9 465.9,492.8 						"/>
						<polygon class="st46" points="468.3,492.8 468.3,509.7 469.9,508.9 469.9,492.8 						"/>
						<polygon class="st46" points="472.3,492.8 472.3,507.7 473.9,506.9 473.9,492.8 						"/>
						<polygon class="st46" points="476.3,492.8 476.3,505.7 477.9,505 477.9,492.8 						"/>
						<polygon class="st46" points="480.3,492.8 480.3,503.8 481.9,503 481.9,492.8 						"/>
						<polygon class="st46" points="484.3,492.8 484.3,501.8 485.9,501 485.9,492.8 						"/>
						<polygon class="st46" points="488.3,492.8 488.3,499.8 489.9,499 489.9,492.8 						"/>
					</g>
					<path class="st47" d="M424.9,582h-39.5c-2.1,0-3.9-1.7-3.9-3.9v-39.5c0-2.1,1.7-3.9,3.9-3.9h39.5c2.1,0,3.9,1.7,3.9,3.9v39.5
						C428.8,580.3,427.1,582,424.9,582z"/>
				</g>
				<g>
					<g>
						<g class="st48">
							<g>
								<path d="M496.2,488.6h-89.8v153.3h89.8c2.1,0,3.8-1.7,3.8-3.8V492.4C500,490.3,498.3,488.6,496.2,488.6z"/>
							</g>
						</g>
						<polygon class="st38" points="349.6,610.8 354,615.3 406.3,615.3 406.3,610.8 						"/>
						<polygon class="st38" points="460.4,610.8 406.3,610.8 406.3,615.3 456,615.3 						"/>
						<polygon points="362.8,614.1 356.9,614.1 355.4,611.9 362.4,611.9 						"/>
						<rect x="366.6" y="612.1" width="3.7" height="1.2"/>
						<rect x="372.4" y="612.1" width="3.7" height="1.2"/>
						<rect x="377.7" y="612.1" width="3.7" height="1.2"/>
						<rect x="382.7" y="612.1" width="3.7" height="1.2"/>
						<rect x="420.8" y="612.1" width="5.5" height="1.2"/>
						<rect x="428.9" y="612.1" width="5.5" height="1.2"/>
						<g>
							<polygon points="452.5,614.4 446.1,614.4 449.1,611.4 455.5,611.4 							"/>
							<polygon points="449.4,611.7 447,614.1 449.4,614.1 451.8,611.7 							"/>
							<polygon class="st39" points="454.5,612.8 452.2,611.7 450.1,614.1 452.4,615.1 							"/>
							<polygon class="st40" points="452.2,611.7 454.8,611.7 454.6,612.8 							"/>
							<ellipse class="st41" cx="452.2" cy="613.5" rx="0.6" ry="0.6"/>
						</g>
					</g>
					<path class="st39" d="M442,663c0-7.2-8.1-13.1-18-13.1h-8V611h-9.7v52L442,663L442,663z"/>
					<path class="st39" d="M394,611v38.9h-8c-9.9,0-18,5.8-18,13.1v0h38.3v-52H394z"/>
				</g>
			</g>
		</g>
	</g>
</g>
</svg>
