<?xml version="1.0" encoding="utf-8"?>
<!-- Generator: Adobe Illustrator 22.1.0, SVG Export Plug-In . SVG Version: 6.00 Build 0)  -->
<svg version="1.1" xmlns="http://www.w3.org/2000/svg" xmlns:xlink="http://www.w3.org/1999/xlink" x="0px" y="0px"
	 viewBox="0 0 1366 768" style="enable-background:new 0 0 1366 768;" xml:space="preserve">
<g id="Layer_1">
	<path d="M322.3,459.8c0,6.7,3.6,9.9,10.4,11.5c5.2,1.2,9.8,4.6,14.7,6.9c1.5,0.7,3.1,1.2,4.6,1.8c7.9,2.7,15.7,5.6,23.7,7.8
		c2.4,0.7,5.4,0.1,7.9-0.8c7.5-2.6,14.7-6.3,22.3-8.4c7.6-2.2,11.1,0.4,13.2,7.5c5.8-0.5,11.5-1.3,17.2-1.2c4.7,0.1,8.1,2.9,9.5,7.5
		c1.2,4.1,0,7.5-3.7,9.9c-1.5,1-3,2-4.1,2.8c4.4,0.9,9,1.6,13.4,3.1c2.5,0.9,5.7,2.7,6.6,4.9c1.4,3.2,1.6,7.3,1,10.8
		c-0.2,1.4-4.1,2.4-6.5,3c-8.1,1.9-16.1,4.7-24.3,5c-22.4,0.9-44.9,0.7-67.3,0.8c-10.1,0-20.3-0.2-30.4-0.7
		c-8.8-0.4-17.5-1-26.2-2.1c-6-0.8-12.6-1.4-17.7-4.2c-10.7-5.9-20.6-13.3-30.8-20.1c-1.9-1.3-3.8-2.7-5.8-3.8
		c-14.2-7.6-28.4-15.2-42.8-22.6c-2.4-1.3-5.3-1.7-8-2.4c-10.4-2.8-20.7-6.2-31.7-6.2c-5,0-7.8-2.9-8.6-7.9c-3-18.5-4-37.1,0-55.6
		c0.6-2.9,1.7-5.7,2.9-8.5c2.8-6.4,7.8-10.2,15-9.3c12.7,1.5,25.3,3.5,38,5.3c7.2,1,14.4,2.3,21.7,3.2c1.9,0.2,4-0.3,5.8-1.1
		c10.5-4.7,21-5.8,31.8-1c2.9,1.3,6,2,9.1,2.6c8.3,1.5,14.4,6.6,20.2,12.2c7,6.7,14.7,11.6,24.2,14c14.4,3.6,28.6,7.8,41.4,15.7
		c7.6,4.7,9.3,9.7,6.9,18.3c-2.4,8.4-12,14.2-20.4,11.9C344.3,467,333.3,463.3,322.3,459.8z"/>
	<path d="M466,250.6c-5.8-6.1-5.7-5.8-13.8-3.1c-5.4,1.8-11.3,2.4-16.9,3.6c-1.3,0.3-2.5,0.7-3.8,1.1c-8.2,2.8-16.4,5.4-24.5,8.6
		c-2.3,0.9-4.4,3.3-5.8,5.5c-4.7,6.9-8.5,14.3-13.6,20.8c-5.1,6.4-8.9,6.3-13.8,2.4c-3.8,3.1-7.1,6.5-11,8.9c-3,1.9-6.6,3.4-10,3.5
		c-5.6,0.2-9.2-5.2-7.8-10.7c0.7-2.5,1.7-5,3.1-8.9c-4.8,6.1-10.3,8.2-16.4,9c-4,0.6-7.7-0.2-10.1-3.9c-2.6-3.8-3.3-7,0.9-10.7
		c4.9-4.4,8.8-9.9,13.3-14.7c3.5-3.8,7-7.6,11-10.9c10.6-8.6,21.3-17.2,32.2-25.4c12.3-9.3,24.5-19,37.6-27
		c9.4-5.7,18.7-11.2,27.5-17.9c9.8-7.5,21.8-7.7,33.3-8.7c6.1-0.6,12.3,0.2,18.5,0.2c2.3,0,4.6-0.4,6.9-0.8
		c15.3-2.5,30.5-5.1,45.8-7.7c1.1-0.2,2.4-0.3,3.3-0.8c10.5-5.6,22.4-8.3,32.2-15.6c7-5.2,8.8-4.7,14.9,1.7
		c11.4,12,21.2,25.3,28,40.5c1.5,3.5,2.5,7.2,3.3,11c1.6,7.2-0.5,13.4-6.9,17.3c-10.7,6.4-21.6,12.5-32.4,18.6
		c-6.8,3.8-13.9,7.2-20.5,11.4c-2.6,1.7-4.6,4.7-6.3,7.5c-5,8.1-11.5,14-21,16.5c-3.5,0.9-7,2.3-10.2,4c-8.3,4.3-17,3.7-25.9,2.7
		c-7.6-0.8-15.1-0.2-22.5,2.5c-14.1,5-28.2,10-42.7,13.6c-10.9,2.7-15.9-1.2-18.5-10.8c-2.2-8.2,2.4-18.5,10.4-21.6
		C444.3,258.2,455.1,254.5,466,250.6z"/>
</g>
<g id="Layer_2">
	<polygon points="379.7,323.9 329.5,374.1 379,423.6 379,408.6 344.9,374.5 380.1,339.3 	"/>
	<polygon points="430.5,423.6 480.7,373.4 431.2,323.9 431.2,338.9 465.3,373 430.2,408.2 	"/>
	<polygon points="425.4,323.9 417.9,323.9 385.1,423.6 392.6,423.6 	"/>
</g>
</svg>
