<?xml version="1.0" encoding="utf-8"?>
<!-- Generator: Adobe Illustrator 22.1.0, SVG Export Plug-In . SVG Version: 6.00 Build 0)  -->
<svg version="1.1" id="Layer_1" xmlns="http://www.w3.org/2000/svg" xmlns:xlink="http://www.w3.org/1999/xlink" x="0px" y="0px"
	 viewBox="0 0 1366 768" style="enable-background:new 0 0 1366 768;" xml:space="preserve">
<style type="text/css">
	.st0{fill:#FFFFFF;}
</style>
<g id="Layer_1_1_">
	<path d="M51.8,92.4c-2.7,0-3.9-1.4-4.5-4.1c-0.5-2.1-1.8-3.9-2.7-5.8c-0.3-0.6-0.5-1.2-0.7-1.8c-1.1-3.1-2.2-6.2-3.1-9.4
		c-0.3-0.9,0-2.1,0.3-3.1c1-3,2.5-5.8,3.3-8.8c0.9-3-0.2-4.4-3-5.2c0.2-2.3,0.5-4.5,0.5-6.8c0-1.9-1.1-3.2-3-3.8
		c-1.6-0.5-3,0-3.9,1.5c-0.4,0.6-0.8,1.2-1.1,1.6c-0.4-1.7-0.6-3.6-1.2-5.3c-0.4-1-1.1-2.3-1.9-2.6c-1.3-0.6-2.9-0.6-4.3-0.4
		c-0.6,0.1-0.9,1.6-1.2,2.6c-0.8,3.2-1.9,6.4-2,9.6C22.9,59.3,23,68.2,23,77.1c0,4,0.1,8,0.3,12c0.2,3.5,0.4,6.9,0.8,10.4
		c0.3,2.4,0.6,5,1.7,7c2.3,4.2,5.3,8.1,8,12.2c0.5,0.8,1.1,1.5,1.5,2.3c3,5.6,6,11.2,8.9,16.9c0.5,0.9,0.7,2.1,0.9,3.2
		c1.1,4.1,2.5,8.2,2.5,12.5c0,2,1.1,3.1,3.1,3.4c7.3,1.2,14.7,1.6,22,0c1.1-0.2,2.3-0.7,3.4-1.1c2.5-1.1,4-3.1,3.7-5.9
		c-0.6-5-1.4-10-2.1-15c-0.4-2.8-0.9-5.7-1.3-8.6c-0.1-0.8,0.1-1.6,0.4-2.3c1.9-4.2,2.3-8.3,0.4-12.6c-0.5-1.1-0.8-2.4-1-3.6
		c-0.6-3.3-2.6-5.7-4.8-8c-2.7-2.8-4.6-5.8-5.5-9.6c-1.4-5.7-3.1-11.3-6.2-16.4c-1.9-3-3.8-3.7-7.2-2.7c-3.3,0.9-5.6,4.7-4.7,8.1
		C49,83.6,50.4,88,51.8,92.4z"/>
	<path d="M129.6,91.8c2.7,0,3.9-1.4,4.5-4.1c0.5-2.1,1.8-3.9,2.7-5.8c0.3-0.6,0.5-1.2,0.7-1.8c1.1-3.1,2.2-6.2,3.1-9.4
		c0.3-0.9,0-2.1-0.3-3.1c-1-3-2.5-5.8-3.3-8.8c-0.9-3,0.2-4.4,3-5.2c-0.2-2.3-0.5-4.5-0.5-6.8c0-1.9,1.1-3.2,3-3.8
		c1.6-0.5,3,0,3.9,1.5c0.4,0.6,0.8,1.2,1.1,1.6c0.4-1.7,0.6-3.6,1.2-5.3c0.4-1,1.1-2.3,1.9-2.6c1.3-0.6,2.9-0.6,4.3-0.4
		c0.6,0.1,0.9,1.6,1.2,2.6c0.8,3.2,1.9,6.4,2,9.6c0.4,8.9,0.3,17.8,0.3,26.6c0,4-0.1,8-0.3,12c-0.2,3.5-0.4,6.9-0.8,10.4
		c-0.3,2.4-0.6,5-1.7,7c-2.3,4.2-5.3,8.1-8,12.2c-0.5,0.8-1.1,1.5-1.5,2.3c-3,5.6-6,11.2-8.9,16.9c-0.5,0.9-0.7,2.1-0.9,3.2
		c-1.1,4.1-2.5,8.2-2.5,12.5c0,2-1.1,3.1-3.1,3.4c-7.3,1.2-14.7,1.6-22,0c-1.1-0.2-2.3-0.7-3.4-1.1c-2.5-1.1-4-3.1-3.7-5.9
		c0.6-5,1.4-10,2.1-15c0.4-2.8,0.9-5.7,1.3-8.6c0.1-0.8-0.1-1.6-0.4-2.3c-1.9-4.2-2.3-8.3-0.4-12.6c0.5-1.1,0.8-2.4,1-3.6
		c0.6-3.3,2.6-5.7,4.8-8c2.7-2.8,4.6-5.8,5.5-9.6c1.4-5.7,3.1-11.3,6.2-16.4c1.9-3,3.8-3.7,7.2-2.7c3.3,0.9,5.6,4.7,4.7,8.1
		C132.5,83.1,131,87.5,129.6,91.8z"/>
</g>
<g id="Layer_3">
	<path d="M90.1,30.4c3.6-4.7,8-8,13.9-8.7c13.8-1.7,26,12.1,22.1,25.5c-1.1,3.7-2.9,7.4-4.9,10.6c-8.1,12.8-18.8,23.3-29.9,33.7
		c-1.5-1.3-3-2.5-4.5-3.8C76.9,79.1,67.4,70.2,60,59.4c-2.3-3.3-4.2-6.9-5.5-10.6c-2.8-7.7,0.8-17.4,7.9-22.6
		c6.7-4.9,15.6-5.2,22.3-0.6C86.5,27,88.2,28.7,90.1,30.4z"/>
</g>
<g id="Layer_2_1_">
	<polygon class="st0" points="81,34 63.4,51.6 80.7,68.9 80.7,63.6 68.8,51.7 81.1,39.4 	"/>
	<polygon class="st0" points="99.4,68.9 117,51.3 99.7,34 99.7,39.3 111.6,51.2 99.3,63.5 	"/>
	<polyline class="st0" points="94.7,34 98.3,34 86.9,68.9 83.2,68.9 	"/>
</g>
</svg>
