<?xml version="1.0" encoding="utf-8"?>
<!-- Generator: Adobe Illustrator 22.1.0, SVG Export Plug-In . SVG Version: 6.00 Build 0)  -->
<svg version="1.1" xmlns="http://www.w3.org/2000/svg" xmlns:xlink="http://www.w3.org/1999/xlink" x="0px" y="0px"
	 viewBox="0 0 1366 768" style="enable-background:new 0 0 1366 768;" xml:space="preserve">
<style type="text/css">
	.st0{fill:#FFFFFF;}
</style>
<g id="Layer_1">
	<path d="M309.4,460.9c-6.7,0-9.9-3.6-11.5-10.4c-1.2-5.2-4.6-9.8-6.9-14.7c-0.7-1.5-1.2-3.1-1.8-4.6c-2.7-7.9-5.6-15.7-7.8-23.7
		c-0.7-2.4-0.1-5.4,0.8-7.9c2.6-7.5,6.3-14.7,8.4-22.3c2.2-7.6-0.4-11.1-7.5-13.2c0.5-5.8,1.3-11.5,1.2-17.2
		c-0.1-4.7-2.9-8.1-7.5-9.5c-4.1-1.2-7.5,0-9.9,3.7c-1,1.5-2,3-2.8,4.1c-0.9-4.4-1.6-9-3.1-13.4c-0.9-2.5-2.7-5.7-4.9-6.6
		c-3.2-1.4-7.3-1.6-10.8-1c-1.4,0.2-2.4,4.1-3,6.5c-1.9,8.1-4.7,16.1-5,24.3c-0.9,22.4-0.7,44.9-0.8,67.3c0,10.1,0.2,20.3,0.7,30.4
		c0.4,8.8,1,17.5,2.1,26.2c0.8,6,1.4,12.6,4.2,17.7c5.9,10.7,13.3,20.6,20.1,30.8c1.3,1.9,2.7,3.8,3.8,5.8
		c7.6,14.2,15.2,28.4,22.6,42.8c1.3,2.4,1.7,5.3,2.4,8c2.8,10.4,6.2,20.7,6.2,31.7c0,5,2.9,7.8,7.9,8.6c18.5,3,37.1,4,55.6,0
		c2.9-0.6,5.7-1.7,8.5-2.9c6.4-2.8,10.2-7.8,9.3-15c-1.5-12.7-3.5-25.3-5.3-38c-1-7.2-2.3-14.4-3.2-21.7c-0.2-1.9,0.3-4,1.1-5.8
		c4.7-10.5,5.8-21,1-31.8c-1.3-2.9-2-6-2.6-9.1c-1.5-8.3-6.6-14.4-12.2-20.2c-6.7-7-11.6-14.7-14-24.2c-3.6-14.4-7.8-28.6-15.7-41.4
		c-4.7-7.6-9.7-9.3-18.3-6.9c-8.4,2.4-14.2,12-11.9,20.4C302.2,438.9,305.9,449.9,309.4,460.9z"/>
	<path d="M506.1,459.6c6.7,0,9.9-3.6,11.5-10.4c1.2-5.2,4.6-9.8,6.9-14.7c0.7-1.5,1.2-3.1,1.8-4.6c2.7-7.9,5.6-15.7,7.8-23.7
		c0.7-2.4,0.1-5.4-0.8-7.9c-2.6-7.5-6.3-14.7-8.4-22.3c-2.2-7.6,0.4-11.1,7.5-13.2c-0.5-5.8-1.3-11.5-1.2-17.2
		c0.1-4.7,2.9-8.1,7.5-9.5c4.1-1.2,7.5,0,9.9,3.7c1,1.5,2,3,2.8,4.1c0.9-4.4,1.6-9,3.1-13.4c0.9-2.5,2.7-5.7,4.9-6.6
		c3.2-1.4,7.3-1.6,10.8-1c1.4,0.2,2.4,4.1,3,6.5c1.9,8.1,4.7,16.1,5,24.3c0.9,22.4,0.7,44.9,0.8,67.3c0,10.1-0.2,20.3-0.7,30.4
		c-0.4,8.8-1,17.5-2.1,26.2c-0.8,6-1.4,12.6-4.2,17.7c-5.9,10.7-13.3,20.6-20.1,30.8c-1.3,1.9-2.7,3.8-3.8,5.8
		c-7.6,14.2-15.2,28.4-22.6,42.8c-1.3,2.4-1.7,5.3-2.4,8c-2.8,10.4-6.2,20.7-6.2,31.7c0,5-2.9,7.8-7.9,8.6c-18.5,3-37.1,4-55.6,0
		c-2.9-0.6-5.7-1.7-8.5-2.9c-6.4-2.8-10.2-7.8-9.3-15c1.5-12.7,3.5-25.3,5.3-38c1-7.2,2.3-14.4,3.2-21.7c0.2-1.9-0.3-4-1.1-5.8
		c-4.7-10.5-5.8-21-1-31.8c1.3-2.9,2-6,2.6-9.1c1.5-8.3,6.6-14.4,12.2-20.2c6.7-7,11.6-14.7,14-24.2c3.6-14.4,7.8-28.6,15.7-41.4
		c4.7-7.6,9.7-9.3,18.3-6.9c8.4,2.4,14.2,12,11.9,20.4C513.3,437.6,509.6,448.6,506.1,459.6z"/>
</g>
<g id="Layer_3">
	<path d="M406.2,304.4c9-12,20.1-20.1,35.2-22c34.8-4.4,65.7,30.7,55.9,64.4c-2.7,9.4-7.3,18.6-12.5,26.8
		c-20.4,32.3-47.4,58.8-75.7,85.3c-3.9-3.3-7.7-6.4-11.4-9.7c-24.8-21.7-48.8-44.2-67.6-71.5c-5.7-8.3-10.7-17.4-14-26.9
		c-7-19.5,2-44,19.9-57.2c16.9-12.5,39.4-13.2,56.4-1.4C397.2,295.7,401.3,300.1,406.2,304.4z"/>
</g>
<g id="Layer_2">
	<polygon class="st0" points="383.1,313.5 338.8,357.8 382.5,401.5 382.5,388.3 352.4,358.1 383.5,327.1 	"/>
	<polygon class="st0" points="429.8,401.5 474.1,357.2 430.4,313.5 430.4,326.7 460.5,356.8 429.4,387.9 	"/>
	<polyline class="st0" points="417.8,313.5 427,313.5 398,401.5 388.7,401.5 	"/>
</g>
</svg>
