<?xml version="1.0" encoding="utf-8"?>
<!-- Generator: Adobe Illustrator 22.1.0, SVG Export Plug-In . SVG Version: 6.00 Build 0)  -->
<svg version="1.1" id="Layer_1" xmlns="http://www.w3.org/2000/svg" xmlns:xlink="http://www.w3.org/1999/xlink" x="0px" y="0px"
	 viewBox="0 0 1024 1024" style="enable-background:new 0 0 1024 1024;" xml:space="preserve">
<style type="text/css">
	.st0{fill:#FFFFFF;}
</style>
<path class="st0" d="M486.5,145.5C294,145.5,138,301.4,138,493.9c0,153.9,99.8,284.5,238.3,330.6c17.4,3.2,23.8-7.6,23.8-16.7
	c0-8.3-0.3-35.8-0.5-64.9c-96.9,21-117.4-41.1-117.4-41.1c-15.9-40.2-38.7-51-38.7-51c-31.6-21.6,2.4-21.2,2.4-21.2
	c35,2.5,53.4,35.9,53.4,35.9c31.1,53.2,81.6,37.8,101.4,28.9c3.2-22.5,12.2-37.8,22.1-46.6c-77.4-8.8-158.7-38.7-158.7-172.3
	c0-38,13.6-69.1,35.9-93.5c-3.5-8.8-15.5-44.3,3.5-92.3c0,0,29.2-9.4,95.8,35.7c27.8-7.8,57.6-11.6,87.2-11.7
	c29.6,0.1,59.4,4,87.2,11.8c66.5-45.1,95.8-35.7,95.8-35.7c19.1,48,7.1,83.4,3.5,92.2c22.3,24.4,35.8,55.5,35.8,93.5
	c0,133.9-81.5,163.3-159.1,172c12.5,10.8,23.7,32,23.7,64.5c0,46.6-0.5,84.1-0.5,95.6c0,9.3,6.3,20.1,24,16.7
	c138.3-46.2,238.1-176.8,238.1-330.7C834.9,301.4,678.9,145.5,486.5,145.5z"/>
</svg>
