<?xml version="1.0" encoding="utf-8"?>
<!-- Generator: Adobe Illustrator 22.1.0, SVG Export Plug-In . SVG Version: 6.00 Build 0)  -->
<svg version="1.1" id="Layer_1" xmlns="http://www.w3.org/2000/svg" xmlns:xlink="http://www.w3.org/1999/xlink" x="0px" y="0px"
	 viewBox="0 0 64 64" style="enable-background:new 0 0 64 64;" xml:space="preserve">
<style type="text/css">
	.st0{fill:#FCFCFC;}
</style>
<g>
	<g id="Icon-Arrow-Left" transform="translate(28.000000, 328.000000)">
		<path id="Fill-25" class="st0" d="M4-319.9c13.2,0,23.9,10.7,23.9,23.9S17.2-272.1,4-272.1s-23.9-10.7-23.9-23.9
			S-9.2-319.9,4-319.9L4-319.9z M4-274.7c11.7,0,21.3-9.6,21.3-21.3S15.7-317.3,4-317.3s-21.3,9.6-21.3,21.3S-7.7-274.7,4-274.7
			L4-274.7z"/>
		<polyline id="Fill-26" class="st0" points="4.5,-309.7 6.3,-307.8 -5.4,-296 6.3,-284.2 4.5,-282.3 -9.2,-296 4.5,-309.7 		"/>
		<polygon id="Fill-27" class="st0" points="-7.3,-297.4 16.7,-297.4 16.7,-294.6 -7.3,-294.6 		"/>
	</g>
</g>
</svg>
